<mxfile host="app.diagrams.net" agent="Mozilla/5.0 (Windows NT 10.0; Win64; x64) AppleWebKit/537.36 (KHTML, like Gecko) Chrome/130.0.0.0 Safari/537.36" version="24.8.4">
  <diagram name="Страница — 1" id="6dKcLjjxsjvN5Ayz9n6f">
    <mxGraphModel dx="4044" dy="2346" grid="1" gridSize="10" guides="1" tooltips="1" connect="1" arrows="1" fold="1" page="1" pageScale="1" pageWidth="827" pageHeight="1169" math="0" shadow="0">
      <root>
        <mxCell id="0" />
        <mxCell id="1" parent="0" />
        <mxCell id="AHMUGFDqU9s1xlmTWF_7-15" value="Объект Заказ" style="text;strokeColor=none;fillColor=none;spacingLeft=4;spacingRight=4;overflow=hidden;rotatable=0;points=[[0,0.5],[1,0.5]];portConstraint=eastwest;fontSize=36;whiteSpace=wrap;html=1;fontStyle=1" parent="1" vertex="1">
          <mxGeometry x="-1600" y="-600" width="280" height="60" as="geometry" />
        </mxCell>
        <mxCell id="RJMTiFoajsU4DwhKSX9r-61" value="" style="shape=table;childLayout=tableLayout;startSize=0;fillColor=none;collapsible=0;recursiveResize=0;expand=0;fontSize=24;" vertex="1" parent="1">
          <mxGeometry x="-1598" y="-550" width="1520" height="528.0000000000005" as="geometry" />
        </mxCell>
        <mxCell id="RJMTiFoajsU4DwhKSX9r-62" value="" style="shape=tableRow;horizontal=0;swimlaneHead=0;swimlaneBody=0;top=0;left=0;strokeColor=inherit;bottom=0;right=0;dropTarget=0;fontStyle=0;fillColor=none;points=[[0,0.5],[1,0.5]];portConstraint=eastwest;startSize=0;collapsible=0;recursiveResize=0;expand=0;fontSize=24;" vertex="1" parent="RJMTiFoajsU4DwhKSX9r-61">
          <mxGeometry width="1520" height="125" as="geometry" />
        </mxCell>
        <mxCell id="RJMTiFoajsU4DwhKSX9r-63" value="Родительская сущность" style="swimlane;swimlaneHead=0;swimlaneBody=0;fontStyle=0;strokeColor=inherit;connectable=0;fillColor=none;startSize=60;collapsible=0;recursiveResize=0;expand=0;fontSize=24;" vertex="1" parent="RJMTiFoajsU4DwhKSX9r-62">
          <mxGeometry width="278" height="125" as="geometry">
            <mxRectangle width="278" height="125" as="alternateBounds" />
          </mxGeometry>
        </mxCell>
        <mxCell id="RJMTiFoajsU4DwhKSX9r-64" value="&lt;span style=&quot;text-align: left;&quot;&gt;&lt;font style=&quot;font-size: 24px;&quot;&gt;Заказ&lt;/font&gt;&lt;/span&gt;" style="text;html=1;align=center;verticalAlign=middle;whiteSpace=wrap;rounded=0;fontSize=24;" vertex="1" parent="RJMTiFoajsU4DwhKSX9r-63">
          <mxGeometry x="67.5" y="79" width="60" height="30" as="geometry" />
        </mxCell>
        <mxCell id="RJMTiFoajsU4DwhKSX9r-65" value="Атрибут" style="swimlane;swimlaneHead=0;swimlaneBody=0;fontStyle=0;strokeColor=inherit;connectable=0;fillColor=none;startSize=60;collapsible=0;recursiveResize=0;expand=0;fontSize=24;" vertex="1" parent="RJMTiFoajsU4DwhKSX9r-62">
          <mxGeometry x="278" width="280" height="125" as="geometry">
            <mxRectangle width="280" height="125" as="alternateBounds" />
          </mxGeometry>
        </mxCell>
        <mxCell id="RJMTiFoajsU4DwhKSX9r-214" value="&lt;font style=&quot;font-size: 24px;&quot;&gt;----&lt;/font&gt;" style="text;html=1;align=center;verticalAlign=middle;resizable=0;points=[];autosize=1;strokeColor=none;fillColor=none;" vertex="1" parent="RJMTiFoajsU4DwhKSX9r-65">
          <mxGeometry x="30" y="74" width="60" height="40" as="geometry" />
        </mxCell>
        <mxCell id="RJMTiFoajsU4DwhKSX9r-66" value="Описание" style="swimlane;swimlaneHead=0;swimlaneBody=0;fontStyle=0;strokeColor=inherit;connectable=0;fillColor=none;startSize=60;collapsible=0;recursiveResize=0;expand=0;fontSize=24;" vertex="1" parent="RJMTiFoajsU4DwhKSX9r-62">
          <mxGeometry x="558" width="962" height="125" as="geometry">
            <mxRectangle width="962" height="125" as="alternateBounds" />
          </mxGeometry>
        </mxCell>
        <mxCell id="RJMTiFoajsU4DwhKSX9r-197" style="shape=tableRow;horizontal=0;swimlaneHead=0;swimlaneBody=0;top=0;left=0;strokeColor=inherit;bottom=0;right=0;dropTarget=0;fontStyle=0;fillColor=none;points=[[0,0.5],[1,0.5]];portConstraint=eastwest;startSize=0;collapsible=0;recursiveResize=0;expand=0;fontSize=24;" vertex="1" parent="RJMTiFoajsU4DwhKSX9r-61">
          <mxGeometry y="125" width="1520" height="52" as="geometry" />
        </mxCell>
        <mxCell id="RJMTiFoajsU4DwhKSX9r-198" style="swimlane;swimlaneHead=0;swimlaneBody=0;fontStyle=0;connectable=0;strokeColor=inherit;fillColor=none;startSize=0;collapsible=0;recursiveResize=0;expand=0;fontSize=24;" vertex="1" parent="RJMTiFoajsU4DwhKSX9r-197">
          <mxGeometry width="278" height="52" as="geometry">
            <mxRectangle width="278" height="52" as="alternateBounds" />
          </mxGeometry>
        </mxCell>
        <mxCell id="RJMTiFoajsU4DwhKSX9r-199" style="swimlane;swimlaneHead=0;swimlaneBody=0;fontStyle=0;connectable=0;strokeColor=inherit;fillColor=none;startSize=0;collapsible=0;recursiveResize=0;expand=0;fontSize=24;" vertex="1" parent="RJMTiFoajsU4DwhKSX9r-197">
          <mxGeometry x="278" width="280" height="52" as="geometry">
            <mxRectangle width="280" height="52" as="alternateBounds" />
          </mxGeometry>
        </mxCell>
        <mxCell id="AHMUGFDqU9s1xlmTWF_7-87" value="&lt;span style=&quot;font-size: 24px;&quot;&gt;OrderID&lt;/span&gt;" style="text;html=1;align=center;verticalAlign=middle;resizable=0;points=[];autosize=1;strokeColor=none;fillColor=none;fontSize=24;" parent="RJMTiFoajsU4DwhKSX9r-199" vertex="1">
          <mxGeometry x="20" y="6" width="110" height="40" as="geometry" />
        </mxCell>
        <mxCell id="RJMTiFoajsU4DwhKSX9r-200" style="swimlane;swimlaneHead=0;swimlaneBody=0;fontStyle=0;connectable=0;strokeColor=inherit;fillColor=none;startSize=0;collapsible=0;recursiveResize=0;expand=0;fontSize=24;" vertex="1" parent="RJMTiFoajsU4DwhKSX9r-197">
          <mxGeometry x="558" width="962" height="52" as="geometry">
            <mxRectangle width="962" height="52" as="alternateBounds" />
          </mxGeometry>
        </mxCell>
        <mxCell id="RJMTiFoajsU4DwhKSX9r-67" value="&lt;p style=&quot;font-size: 24px;&quot; class=&quot;MsoNormal&quot;&gt;Уникальный идентификатор заказа.&lt;/p&gt;" style="text;html=1;align=left;verticalAlign=middle;resizable=0;points=[];autosize=1;strokeColor=none;fillColor=none;fontSize=24;" vertex="1" parent="RJMTiFoajsU4DwhKSX9r-200">
          <mxGeometry x="20" y="-19" width="420" height="90" as="geometry" />
        </mxCell>
        <mxCell id="RJMTiFoajsU4DwhKSX9r-215" value="&lt;font style=&quot;font-size: 24px;&quot;&gt;Объект заказ.&lt;/font&gt;" style="text;html=1;align=center;verticalAlign=middle;resizable=0;points=[];autosize=1;strokeColor=none;fillColor=none;" vertex="1" parent="RJMTiFoajsU4DwhKSX9r-200">
          <mxGeometry x="3" y="-49" width="180" height="40" as="geometry" />
        </mxCell>
        <mxCell id="RJMTiFoajsU4DwhKSX9r-72" value="&lt;p class=&quot;MsoNormal&quot; style=&quot;font-size: 24px; line-height: 120%;&quot;&gt;&lt;span style=&quot;line-height: 107%; font-size: 24px;&quot;&gt;Идентификатор пользователя, сделавшего заказ.&lt;/span&gt;&lt;/p&gt;" style="text;html=1;align=left;verticalAlign=middle;resizable=0;points=[];autosize=1;strokeColor=none;fillColor=none;fontSize=24;" vertex="1" parent="RJMTiFoajsU4DwhKSX9r-200">
          <mxGeometry x="20" y="34" width="580" height="90" as="geometry" />
        </mxCell>
        <mxCell id="RJMTiFoajsU4DwhKSX9r-68" value="" style="shape=tableRow;horizontal=0;swimlaneHead=0;swimlaneBody=0;top=0;left=0;strokeColor=inherit;bottom=0;right=0;dropTarget=0;fontStyle=0;fillColor=none;points=[[0,0.5],[1,0.5]];portConstraint=eastwest;startSize=0;collapsible=0;recursiveResize=0;expand=0;fontSize=24;" vertex="1" parent="RJMTiFoajsU4DwhKSX9r-61">
          <mxGeometry y="177" width="1520" height="57" as="geometry" />
        </mxCell>
        <mxCell id="RJMTiFoajsU4DwhKSX9r-69" style="swimlane;swimlaneHead=0;swimlaneBody=0;fontStyle=0;connectable=0;strokeColor=inherit;fillColor=none;startSize=0;collapsible=0;recursiveResize=0;expand=0;fontSize=24;" vertex="1" parent="RJMTiFoajsU4DwhKSX9r-68">
          <mxGeometry width="278" height="57" as="geometry">
            <mxRectangle width="278" height="57" as="alternateBounds" />
          </mxGeometry>
        </mxCell>
        <mxCell id="RJMTiFoajsU4DwhKSX9r-70" value="" style="swimlane;swimlaneHead=0;swimlaneBody=0;fontStyle=0;connectable=0;strokeColor=inherit;fillColor=none;startSize=0;collapsible=0;recursiveResize=0;expand=0;fontSize=24;" vertex="1" parent="RJMTiFoajsU4DwhKSX9r-68">
          <mxGeometry x="278" width="280" height="57" as="geometry">
            <mxRectangle width="280" height="57" as="alternateBounds" />
          </mxGeometry>
        </mxCell>
        <mxCell id="RJMTiFoajsU4DwhKSX9r-87" value="&lt;span style=&quot;font-size: 24px; line-height: 107%;&quot;&gt;UserID&lt;/span&gt;" style="text;html=1;align=center;verticalAlign=middle;resizable=0;points=[];autosize=1;strokeColor=none;fillColor=none;fontSize=24;" vertex="1" parent="RJMTiFoajsU4DwhKSX9r-70">
          <mxGeometry x="20" y="8.5" width="100" height="40" as="geometry" />
        </mxCell>
        <mxCell id="RJMTiFoajsU4DwhKSX9r-71" value="" style="swimlane;swimlaneHead=0;swimlaneBody=0;fontStyle=0;connectable=0;strokeColor=inherit;fillColor=none;startSize=0;collapsible=0;recursiveResize=0;expand=0;fontSize=24;" vertex="1" parent="RJMTiFoajsU4DwhKSX9r-68">
          <mxGeometry x="558" width="962" height="57" as="geometry">
            <mxRectangle width="962" height="57" as="alternateBounds" />
          </mxGeometry>
        </mxCell>
        <mxCell id="RJMTiFoajsU4DwhKSX9r-73" value="" style="shape=tableRow;horizontal=0;swimlaneHead=0;swimlaneBody=0;top=0;left=0;strokeColor=inherit;bottom=0;right=0;dropTarget=0;fontStyle=0;fillColor=none;points=[[0,0.5],[1,0.5]];portConstraint=eastwest;startSize=0;collapsible=0;recursiveResize=0;expand=0;fontSize=24;" vertex="1" parent="RJMTiFoajsU4DwhKSX9r-61">
          <mxGeometry y="234" width="1520" height="66" as="geometry" />
        </mxCell>
        <mxCell id="RJMTiFoajsU4DwhKSX9r-74" style="swimlane;swimlaneHead=0;swimlaneBody=0;fontStyle=0;connectable=0;strokeColor=inherit;fillColor=none;startSize=0;collapsible=0;recursiveResize=0;expand=0;fontSize=24;" vertex="1" parent="RJMTiFoajsU4DwhKSX9r-73">
          <mxGeometry width="278" height="66" as="geometry">
            <mxRectangle width="278" height="66" as="alternateBounds" />
          </mxGeometry>
        </mxCell>
        <mxCell id="RJMTiFoajsU4DwhKSX9r-75" value="" style="swimlane;swimlaneHead=0;swimlaneBody=0;fontStyle=0;connectable=0;strokeColor=inherit;fillColor=none;startSize=0;collapsible=0;recursiveResize=0;expand=0;fontSize=24;" vertex="1" parent="RJMTiFoajsU4DwhKSX9r-73">
          <mxGeometry x="278" width="280" height="66" as="geometry">
            <mxRectangle width="280" height="66" as="alternateBounds" />
          </mxGeometry>
        </mxCell>
        <mxCell id="RJMTiFoajsU4DwhKSX9r-88" value="&lt;span style=&quot;font-size: 24px; line-height: 107%;&quot;&gt;OrderStatus&lt;/span&gt;" style="text;html=1;align=center;verticalAlign=middle;resizable=0;points=[];autosize=1;strokeColor=none;fillColor=none;fontSize=24;" vertex="1" parent="RJMTiFoajsU4DwhKSX9r-75">
          <mxGeometry x="25" y="15" width="150" height="40" as="geometry" />
        </mxCell>
        <mxCell id="RJMTiFoajsU4DwhKSX9r-76" value="" style="swimlane;swimlaneHead=0;swimlaneBody=0;fontStyle=0;connectable=0;strokeColor=inherit;fillColor=none;startSize=0;collapsible=0;recursiveResize=0;expand=0;fontSize=24;" vertex="1" parent="RJMTiFoajsU4DwhKSX9r-73">
          <mxGeometry x="558" width="962" height="66" as="geometry">
            <mxRectangle width="962" height="66" as="alternateBounds" />
          </mxGeometry>
        </mxCell>
        <mxCell id="RJMTiFoajsU4DwhKSX9r-77" value="&lt;p style=&quot;font-size: 24px;&quot; class=&quot;MsoNormal&quot;&gt;Статус заказа - &quot;Оплачен&quot;, &quot;На сборке&quot;,&amp;nbsp;&lt;span style=&quot;background-color: initial;&quot;&gt;&quot;Готов к доставке&quot;.&lt;/span&gt;&lt;/p&gt;" style="text;html=1;align=left;verticalAlign=middle;resizable=0;points=[];autosize=1;strokeColor=none;fillColor=none;fontSize=24;" vertex="1" parent="RJMTiFoajsU4DwhKSX9r-76">
          <mxGeometry x="20" y="-8.5" width="680" height="90" as="geometry" />
        </mxCell>
        <mxCell id="RJMTiFoajsU4DwhKSX9r-78" value="" style="shape=tableRow;horizontal=0;swimlaneHead=0;swimlaneBody=0;top=0;left=0;strokeColor=inherit;bottom=0;right=0;dropTarget=0;fontStyle=0;fillColor=none;points=[[0,0.5],[1,0.5]];portConstraint=eastwest;startSize=0;collapsible=0;recursiveResize=0;expand=0;fontSize=24;" vertex="1" parent="RJMTiFoajsU4DwhKSX9r-61">
          <mxGeometry y="300" width="1520" height="57" as="geometry" />
        </mxCell>
        <mxCell id="RJMTiFoajsU4DwhKSX9r-79" style="swimlane;swimlaneHead=0;swimlaneBody=0;fontStyle=0;connectable=0;strokeColor=inherit;fillColor=none;startSize=0;collapsible=0;recursiveResize=0;expand=0;fontSize=24;" vertex="1" parent="RJMTiFoajsU4DwhKSX9r-78">
          <mxGeometry width="278" height="57" as="geometry">
            <mxRectangle width="278" height="57" as="alternateBounds" />
          </mxGeometry>
        </mxCell>
        <mxCell id="RJMTiFoajsU4DwhKSX9r-80" value="" style="swimlane;swimlaneHead=0;swimlaneBody=0;fontStyle=0;connectable=0;strokeColor=inherit;fillColor=none;startSize=0;collapsible=0;recursiveResize=0;expand=0;fontSize=24;" vertex="1" parent="RJMTiFoajsU4DwhKSX9r-78">
          <mxGeometry x="278" width="280" height="57" as="geometry">
            <mxRectangle width="280" height="57" as="alternateBounds" />
          </mxGeometry>
        </mxCell>
        <mxCell id="AHMUGFDqU9s1xlmTWF_7-91" value="&lt;span style=&quot;font-size: 24px; line-height: 107%;&quot;&gt;OrderDate&lt;/span&gt;" style="text;html=1;align=center;verticalAlign=middle;resizable=0;points=[];autosize=1;strokeColor=none;fillColor=none;fontSize=24;" parent="RJMTiFoajsU4DwhKSX9r-80" vertex="1">
          <mxGeometry x="20" y="8.5" width="140" height="40" as="geometry" />
        </mxCell>
        <mxCell id="RJMTiFoajsU4DwhKSX9r-81" value="" style="swimlane;swimlaneHead=0;swimlaneBody=0;fontStyle=0;connectable=0;strokeColor=inherit;fillColor=none;startSize=0;collapsible=0;recursiveResize=0;expand=0;fontSize=24;" vertex="1" parent="RJMTiFoajsU4DwhKSX9r-78">
          <mxGeometry x="558" width="962" height="57" as="geometry">
            <mxRectangle width="962" height="57" as="alternateBounds" />
          </mxGeometry>
        </mxCell>
        <mxCell id="RJMTiFoajsU4DwhKSX9r-91" value="Дата и время оформления заказа." style="text;html=1;align=center;verticalAlign=middle;resizable=0;points=[];autosize=1;strokeColor=none;fillColor=none;fontSize=24;" vertex="1" parent="RJMTiFoajsU4DwhKSX9r-81">
          <mxGeometry x="10" y="8.5" width="410" height="40" as="geometry" />
        </mxCell>
        <mxCell id="RJMTiFoajsU4DwhKSX9r-415" style="shape=tableRow;horizontal=0;swimlaneHead=0;swimlaneBody=0;top=0;left=0;strokeColor=inherit;bottom=0;right=0;dropTarget=0;fontStyle=0;fillColor=none;points=[[0,0.5],[1,0.5]];portConstraint=eastwest;startSize=0;collapsible=0;recursiveResize=0;expand=0;fontSize=24;" vertex="1" parent="RJMTiFoajsU4DwhKSX9r-61">
          <mxGeometry y="357" width="1520" height="57" as="geometry" />
        </mxCell>
        <mxCell id="RJMTiFoajsU4DwhKSX9r-416" style="swimlane;swimlaneHead=0;swimlaneBody=0;fontStyle=0;connectable=0;strokeColor=inherit;fillColor=none;startSize=0;collapsible=0;recursiveResize=0;expand=0;fontSize=24;" vertex="1" parent="RJMTiFoajsU4DwhKSX9r-415">
          <mxGeometry width="278" height="57" as="geometry">
            <mxRectangle width="278" height="57" as="alternateBounds" />
          </mxGeometry>
        </mxCell>
        <mxCell id="RJMTiFoajsU4DwhKSX9r-417" style="swimlane;swimlaneHead=0;swimlaneBody=0;fontStyle=0;connectable=0;strokeColor=inherit;fillColor=none;startSize=0;collapsible=0;recursiveResize=0;expand=0;fontSize=24;" vertex="1" parent="RJMTiFoajsU4DwhKSX9r-415">
          <mxGeometry x="278" width="280" height="57" as="geometry">
            <mxRectangle width="280" height="57" as="alternateBounds" />
          </mxGeometry>
        </mxCell>
        <mxCell id="RJMTiFoajsU4DwhKSX9r-97" value="TotalAmount" style="text;html=1;align=center;verticalAlign=middle;resizable=0;points=[];autosize=1;strokeColor=none;fillColor=none;fontSize=24;" vertex="1" parent="RJMTiFoajsU4DwhKSX9r-417">
          <mxGeometry x="15" y="8.5" width="160" height="40" as="geometry" />
        </mxCell>
        <mxCell id="RJMTiFoajsU4DwhKSX9r-418" style="swimlane;swimlaneHead=0;swimlaneBody=0;fontStyle=0;connectable=0;strokeColor=inherit;fillColor=none;startSize=0;collapsible=0;recursiveResize=0;expand=0;fontSize=24;" vertex="1" parent="RJMTiFoajsU4DwhKSX9r-415">
          <mxGeometry x="558" width="962" height="57" as="geometry">
            <mxRectangle width="962" height="57" as="alternateBounds" />
          </mxGeometry>
        </mxCell>
        <mxCell id="RJMTiFoajsU4DwhKSX9r-98" value="Итоговая сумма заказа." style="text;html=1;align=center;verticalAlign=middle;resizable=0;points=[];autosize=1;strokeColor=none;fillColor=none;fontSize=24;" vertex="1" parent="RJMTiFoajsU4DwhKSX9r-418">
          <mxGeometry x="1" y="8.5" width="290" height="40" as="geometry" />
        </mxCell>
        <mxCell id="RJMTiFoajsU4DwhKSX9r-82" style="shape=tableRow;horizontal=0;swimlaneHead=0;swimlaneBody=0;top=0;left=0;strokeColor=inherit;bottom=0;right=0;dropTarget=0;fontStyle=0;fillColor=none;points=[[0,0.5],[1,0.5]];portConstraint=eastwest;startSize=0;collapsible=0;recursiveResize=0;expand=0;fontSize=24;" vertex="1" parent="RJMTiFoajsU4DwhKSX9r-61">
          <mxGeometry y="414" width="1520" height="57" as="geometry" />
        </mxCell>
        <mxCell id="RJMTiFoajsU4DwhKSX9r-83" style="swimlane;swimlaneHead=0;swimlaneBody=0;fontStyle=0;connectable=0;strokeColor=inherit;fillColor=none;startSize=0;collapsible=0;recursiveResize=0;expand=0;fontSize=24;" vertex="1" parent="RJMTiFoajsU4DwhKSX9r-82">
          <mxGeometry width="278" height="57" as="geometry">
            <mxRectangle width="278" height="57" as="alternateBounds" />
          </mxGeometry>
        </mxCell>
        <mxCell id="RJMTiFoajsU4DwhKSX9r-84" style="swimlane;swimlaneHead=0;swimlaneBody=0;fontStyle=0;connectable=0;strokeColor=inherit;fillColor=none;startSize=0;collapsible=0;recursiveResize=0;expand=0;fontSize=24;" vertex="1" parent="RJMTiFoajsU4DwhKSX9r-82">
          <mxGeometry x="278" width="280" height="57" as="geometry">
            <mxRectangle width="280" height="57" as="alternateBounds" />
          </mxGeometry>
        </mxCell>
        <mxCell id="AHMUGFDqU9s1xlmTWF_7-96" value="&lt;span style=&quot;font-size: 24px; line-height: 107%;&quot;&gt;DeliveryDate&lt;/span&gt;" style="text;html=1;align=center;verticalAlign=middle;resizable=0;points=[];autosize=1;strokeColor=none;fillColor=none;fontSize=24;" parent="RJMTiFoajsU4DwhKSX9r-84" vertex="1">
          <mxGeometry x="20" y="8.5" width="160" height="40" as="geometry" />
        </mxCell>
        <mxCell id="RJMTiFoajsU4DwhKSX9r-85" style="swimlane;swimlaneHead=0;swimlaneBody=0;fontStyle=0;connectable=0;strokeColor=inherit;fillColor=none;startSize=0;collapsible=0;recursiveResize=0;expand=0;fontSize=24;" vertex="1" parent="RJMTiFoajsU4DwhKSX9r-82">
          <mxGeometry x="558" width="962" height="57" as="geometry">
            <mxRectangle width="962" height="57" as="alternateBounds" />
          </mxGeometry>
        </mxCell>
        <mxCell id="RJMTiFoajsU4DwhKSX9r-96" value="Предполагаемая дата и время доставки." style="text;html=1;align=center;verticalAlign=middle;resizable=0;points=[];autosize=1;strokeColor=none;fillColor=none;fontSize=24;" vertex="1" parent="RJMTiFoajsU4DwhKSX9r-85">
          <mxGeometry x="1" y="8.5" width="480" height="40" as="geometry" />
        </mxCell>
        <mxCell id="RJMTiFoajsU4DwhKSX9r-92" style="shape=tableRow;horizontal=0;swimlaneHead=0;swimlaneBody=0;top=0;left=0;strokeColor=inherit;bottom=0;right=0;dropTarget=0;fontStyle=0;fillColor=none;points=[[0,0.5],[1,0.5]];portConstraint=eastwest;startSize=0;collapsible=0;recursiveResize=0;expand=0;fontSize=24;" vertex="1" parent="RJMTiFoajsU4DwhKSX9r-61">
          <mxGeometry y="471" width="1520" height="57" as="geometry" />
        </mxCell>
        <mxCell id="RJMTiFoajsU4DwhKSX9r-93" style="swimlane;swimlaneHead=0;swimlaneBody=0;fontStyle=0;connectable=0;strokeColor=inherit;fillColor=none;startSize=0;collapsible=0;recursiveResize=0;expand=0;fontSize=24;" vertex="1" parent="RJMTiFoajsU4DwhKSX9r-92">
          <mxGeometry width="278" height="57" as="geometry">
            <mxRectangle width="278" height="57" as="alternateBounds" />
          </mxGeometry>
        </mxCell>
        <mxCell id="RJMTiFoajsU4DwhKSX9r-94" style="swimlane;swimlaneHead=0;swimlaneBody=0;fontStyle=0;connectable=0;strokeColor=inherit;fillColor=none;startSize=0;collapsible=0;recursiveResize=0;expand=0;fontSize=24;" vertex="1" parent="RJMTiFoajsU4DwhKSX9r-92">
          <mxGeometry x="278" width="280" height="57" as="geometry">
            <mxRectangle width="280" height="57" as="alternateBounds" />
          </mxGeometry>
        </mxCell>
        <mxCell id="RJMTiFoajsU4DwhKSX9r-103" value="DeliveryStatus" style="text;html=1;align=center;verticalAlign=middle;resizable=0;points=[];autosize=1;strokeColor=none;fillColor=none;fontSize=24;" vertex="1" parent="RJMTiFoajsU4DwhKSX9r-94">
          <mxGeometry x="20" y="8.5" width="180" height="40" as="geometry" />
        </mxCell>
        <mxCell id="RJMTiFoajsU4DwhKSX9r-95" style="swimlane;swimlaneHead=0;swimlaneBody=0;fontStyle=0;connectable=0;strokeColor=inherit;fillColor=none;startSize=0;collapsible=0;recursiveResize=0;expand=0;fontSize=24;" vertex="1" parent="RJMTiFoajsU4DwhKSX9r-92">
          <mxGeometry x="558" width="962" height="57" as="geometry">
            <mxRectangle width="962" height="57" as="alternateBounds" />
          </mxGeometry>
        </mxCell>
        <mxCell id="RJMTiFoajsU4DwhKSX9r-104" value="Статус доставки -&amp;nbsp;&amp;nbsp;&lt;span style=&quot;background-color: initial;&quot;&gt;&quot;В пути&quot;, &quot;Доставлен&quot;.&lt;/span&gt;" style="text;html=1;align=left;verticalAlign=middle;resizable=0;points=[];autosize=1;strokeColor=none;fillColor=none;fontSize=24;" vertex="1" parent="RJMTiFoajsU4DwhKSX9r-95">
          <mxGeometry x="14" y="8.5" width="480" height="40" as="geometry" />
        </mxCell>
        <mxCell id="RJMTiFoajsU4DwhKSX9r-105" value="Объект - Товар в заказе" style="text;strokeColor=none;fillColor=none;spacingLeft=4;spacingRight=4;overflow=hidden;rotatable=0;points=[[0,0.5],[1,0.5]];portConstraint=eastwest;fontSize=36;whiteSpace=wrap;html=1;fontStyle=1" vertex="1" parent="1">
          <mxGeometry x="-1606" y="10" width="710" height="70" as="geometry" />
        </mxCell>
        <mxCell id="RJMTiFoajsU4DwhKSX9r-106" value="" style="shape=table;childLayout=tableLayout;startSize=0;fillColor=none;collapsible=0;recursiveResize=0;expand=0;fontSize=17;" vertex="1" parent="1">
          <mxGeometry x="-1600" y="60" width="1520" height="437" as="geometry" />
        </mxCell>
        <mxCell id="RJMTiFoajsU4DwhKSX9r-107" value="" style="shape=tableRow;horizontal=0;swimlaneHead=0;swimlaneBody=0;top=0;left=0;strokeColor=inherit;bottom=0;right=0;dropTarget=0;fontStyle=0;fillColor=none;points=[[0,0.5],[1,0.5]];portConstraint=eastwest;startSize=0;collapsible=0;recursiveResize=0;expand=0;fontSize=17;verticalAlign=middle;align=left;" vertex="1" parent="RJMTiFoajsU4DwhKSX9r-106">
          <mxGeometry width="1520" height="119" as="geometry" />
        </mxCell>
        <mxCell id="RJMTiFoajsU4DwhKSX9r-108" value="Родительская сущность" style="swimlane;swimlaneHead=0;swimlaneBody=0;fontStyle=0;strokeColor=inherit;connectable=0;fillColor=none;startSize=70;collapsible=0;recursiveResize=0;expand=0;fontSize=24;verticalAlign=middle;align=center;" vertex="1" parent="RJMTiFoajsU4DwhKSX9r-107">
          <mxGeometry width="284" height="119" as="geometry">
            <mxRectangle width="284" height="119" as="alternateBounds" />
          </mxGeometry>
        </mxCell>
        <mxCell id="RJMTiFoajsU4DwhKSX9r-109" value="Товар в заказе" style="text;html=1;align=left;verticalAlign=middle;whiteSpace=wrap;rounded=0;fontSize=24;fontStyle=0" vertex="1" parent="RJMTiFoajsU4DwhKSX9r-108">
          <mxGeometry x="18" y="75" width="192" height="30" as="geometry" />
        </mxCell>
        <mxCell id="RJMTiFoajsU4DwhKSX9r-110" value="Атрибут" style="swimlane;swimlaneHead=0;swimlaneBody=0;fontStyle=0;strokeColor=inherit;connectable=0;fillColor=none;startSize=70;collapsible=0;recursiveResize=0;expand=0;fontSize=24;verticalAlign=middle;align=center;" vertex="1" parent="RJMTiFoajsU4DwhKSX9r-107">
          <mxGeometry x="284" width="280" height="119" as="geometry">
            <mxRectangle width="280" height="119" as="alternateBounds" />
          </mxGeometry>
        </mxCell>
        <mxCell id="RJMTiFoajsU4DwhKSX9r-216" value="&lt;font style=&quot;font-size: 24px;&quot;&gt;----&lt;/font&gt;" style="text;html=1;align=center;verticalAlign=middle;resizable=0;points=[];autosize=1;strokeColor=none;fillColor=none;" vertex="1" parent="RJMTiFoajsU4DwhKSX9r-110">
          <mxGeometry x="20" y="75" width="60" height="40" as="geometry" />
        </mxCell>
        <mxCell id="RJMTiFoajsU4DwhKSX9r-112" value="Описание" style="swimlane;swimlaneHead=0;swimlaneBody=0;fontStyle=0;strokeColor=inherit;connectable=0;fillColor=none;startSize=70;collapsible=0;recursiveResize=0;expand=0;fontSize=24;verticalAlign=middle;align=center;" vertex="1" parent="RJMTiFoajsU4DwhKSX9r-107">
          <mxGeometry x="564" width="956" height="119" as="geometry">
            <mxRectangle width="956" height="119" as="alternateBounds" />
          </mxGeometry>
        </mxCell>
        <mxCell id="RJMTiFoajsU4DwhKSX9r-219" value="Объект товар в заказе." style="text;html=1;align=left;verticalAlign=middle;whiteSpace=wrap;rounded=0;fontSize=24;" vertex="1" parent="RJMTiFoajsU4DwhKSX9r-112">
          <mxGeometry x="7" y="80" width="343" height="30" as="geometry" />
        </mxCell>
        <mxCell id="RJMTiFoajsU4DwhKSX9r-203" style="shape=tableRow;horizontal=0;swimlaneHead=0;swimlaneBody=0;top=0;left=0;strokeColor=inherit;bottom=0;right=0;dropTarget=0;fontStyle=0;fillColor=none;points=[[0,0.5],[1,0.5]];portConstraint=eastwest;startSize=0;collapsible=0;recursiveResize=0;expand=0;fontSize=24;verticalAlign=middle;align=left;" vertex="1" parent="RJMTiFoajsU4DwhKSX9r-106">
          <mxGeometry y="119" width="1520" height="53" as="geometry" />
        </mxCell>
        <mxCell id="RJMTiFoajsU4DwhKSX9r-204" style="swimlane;swimlaneHead=0;swimlaneBody=0;fontStyle=0;connectable=0;strokeColor=inherit;fillColor=none;startSize=0;collapsible=0;recursiveResize=0;expand=0;fontSize=24;verticalAlign=middle;align=left;" vertex="1" parent="RJMTiFoajsU4DwhKSX9r-203">
          <mxGeometry width="284" height="53" as="geometry">
            <mxRectangle width="284" height="53" as="alternateBounds" />
          </mxGeometry>
        </mxCell>
        <mxCell id="RJMTiFoajsU4DwhKSX9r-205" style="swimlane;swimlaneHead=0;swimlaneBody=0;fontStyle=0;connectable=0;strokeColor=inherit;fillColor=none;startSize=0;collapsible=0;recursiveResize=0;expand=0;fontSize=24;verticalAlign=middle;align=left;" vertex="1" parent="RJMTiFoajsU4DwhKSX9r-203">
          <mxGeometry x="284" width="280" height="53" as="geometry">
            <mxRectangle width="280" height="53" as="alternateBounds" />
          </mxGeometry>
        </mxCell>
        <mxCell id="RJMTiFoajsU4DwhKSX9r-111" value="&lt;span style=&quot;font-size: 24px;&quot;&gt;OrderItemID&lt;/span&gt;" style="text;html=1;align=left;verticalAlign=middle;resizable=0;points=[];autosize=1;strokeColor=none;fillColor=none;fontSize=24;fontStyle=0" vertex="1" parent="RJMTiFoajsU4DwhKSX9r-205">
          <mxGeometry x="23" y="6.5" width="160" height="40" as="geometry" />
        </mxCell>
        <mxCell id="RJMTiFoajsU4DwhKSX9r-206" style="swimlane;swimlaneHead=0;swimlaneBody=0;fontStyle=0;connectable=0;strokeColor=inherit;fillColor=none;startSize=0;collapsible=0;recursiveResize=0;expand=0;fontSize=24;verticalAlign=middle;align=left;" vertex="1" parent="RJMTiFoajsU4DwhKSX9r-203">
          <mxGeometry x="564" width="956" height="53" as="geometry">
            <mxRectangle width="956" height="53" as="alternateBounds" />
          </mxGeometry>
        </mxCell>
        <mxCell id="RJMTiFoajsU4DwhKSX9r-114" value="" style="shape=tableRow;horizontal=0;swimlaneHead=0;swimlaneBody=0;top=0;left=0;strokeColor=inherit;bottom=0;right=0;dropTarget=0;fontStyle=0;fillColor=none;points=[[0,0.5],[1,0.5]];portConstraint=eastwest;startSize=0;collapsible=0;recursiveResize=0;expand=0;fontSize=24;verticalAlign=middle;align=left;" vertex="1" parent="RJMTiFoajsU4DwhKSX9r-106">
          <mxGeometry y="172" width="1520" height="53" as="geometry" />
        </mxCell>
        <mxCell id="RJMTiFoajsU4DwhKSX9r-115" style="swimlane;swimlaneHead=0;swimlaneBody=0;fontStyle=0;connectable=0;strokeColor=inherit;fillColor=none;startSize=0;collapsible=0;recursiveResize=0;expand=0;fontSize=24;verticalAlign=middle;align=left;" vertex="1" parent="RJMTiFoajsU4DwhKSX9r-114">
          <mxGeometry width="284" height="53" as="geometry">
            <mxRectangle width="284" height="53" as="alternateBounds" />
          </mxGeometry>
        </mxCell>
        <mxCell id="RJMTiFoajsU4DwhKSX9r-116" value="" style="swimlane;swimlaneHead=0;swimlaneBody=0;fontStyle=0;connectable=0;strokeColor=inherit;fillColor=none;startSize=0;collapsible=0;recursiveResize=0;expand=0;fontSize=24;verticalAlign=middle;align=left;" vertex="1" parent="RJMTiFoajsU4DwhKSX9r-114">
          <mxGeometry x="284" width="280" height="53" as="geometry">
            <mxRectangle width="280" height="53" as="alternateBounds" />
          </mxGeometry>
        </mxCell>
        <mxCell id="RJMTiFoajsU4DwhKSX9r-117" value="&lt;span style=&quot;font-size: 24px; line-height: 107%;&quot;&gt;OrderID&amp;nbsp;&lt;/span&gt;" style="text;html=1;align=left;verticalAlign=middle;resizable=0;points=[];autosize=1;strokeColor=none;fillColor=none;fontSize=24;" vertex="1" parent="RJMTiFoajsU4DwhKSX9r-116">
          <mxGeometry x="24" y="6" width="120" height="40" as="geometry" />
        </mxCell>
        <mxCell id="RJMTiFoajsU4DwhKSX9r-118" value="" style="swimlane;swimlaneHead=0;swimlaneBody=0;fontStyle=0;connectable=0;strokeColor=inherit;fillColor=none;startSize=0;collapsible=0;recursiveResize=0;expand=0;fontSize=24;verticalAlign=middle;align=left;" vertex="1" parent="RJMTiFoajsU4DwhKSX9r-114">
          <mxGeometry x="564" width="956" height="53" as="geometry">
            <mxRectangle width="956" height="53" as="alternateBounds" />
          </mxGeometry>
        </mxCell>
        <mxCell id="RJMTiFoajsU4DwhKSX9r-120" value="" style="shape=tableRow;horizontal=0;swimlaneHead=0;swimlaneBody=0;top=0;left=0;strokeColor=inherit;bottom=0;right=0;dropTarget=0;fontStyle=0;fillColor=none;points=[[0,0.5],[1,0.5]];portConstraint=eastwest;startSize=0;collapsible=0;recursiveResize=0;expand=0;fontSize=24;verticalAlign=middle;align=left;" vertex="1" parent="RJMTiFoajsU4DwhKSX9r-106">
          <mxGeometry y="225" width="1520" height="53" as="geometry" />
        </mxCell>
        <mxCell id="RJMTiFoajsU4DwhKSX9r-121" style="swimlane;swimlaneHead=0;swimlaneBody=0;fontStyle=0;connectable=0;strokeColor=inherit;fillColor=none;startSize=0;collapsible=0;recursiveResize=0;expand=0;fontSize=24;verticalAlign=middle;align=left;" vertex="1" parent="RJMTiFoajsU4DwhKSX9r-120">
          <mxGeometry width="284" height="53" as="geometry">
            <mxRectangle width="284" height="53" as="alternateBounds" />
          </mxGeometry>
        </mxCell>
        <mxCell id="RJMTiFoajsU4DwhKSX9r-122" value="" style="swimlane;swimlaneHead=0;swimlaneBody=0;fontStyle=0;connectable=0;strokeColor=inherit;fillColor=none;startSize=0;collapsible=0;recursiveResize=0;expand=0;fontSize=24;verticalAlign=middle;align=left;" vertex="1" parent="RJMTiFoajsU4DwhKSX9r-120">
          <mxGeometry x="284" width="280" height="53" as="geometry">
            <mxRectangle width="280" height="53" as="alternateBounds" />
          </mxGeometry>
        </mxCell>
        <mxCell id="RJMTiFoajsU4DwhKSX9r-123" value="&lt;span style=&quot;font-size: 24px; line-height: 107%;&quot;&gt;ProductID&lt;/span&gt;" style="text;html=1;align=left;verticalAlign=middle;resizable=0;points=[];autosize=1;strokeColor=none;fillColor=none;fontSize=24;" vertex="1" parent="RJMTiFoajsU4DwhKSX9r-122">
          <mxGeometry x="24" y="6.5" width="130" height="40" as="geometry" />
        </mxCell>
        <mxCell id="RJMTiFoajsU4DwhKSX9r-124" value="" style="swimlane;swimlaneHead=0;swimlaneBody=0;fontStyle=0;connectable=0;strokeColor=inherit;fillColor=none;startSize=0;collapsible=0;recursiveResize=0;expand=0;fontSize=24;verticalAlign=middle;align=left;" vertex="1" parent="RJMTiFoajsU4DwhKSX9r-120">
          <mxGeometry x="564" width="956" height="53" as="geometry">
            <mxRectangle width="956" height="53" as="alternateBounds" />
          </mxGeometry>
        </mxCell>
        <mxCell id="RJMTiFoajsU4DwhKSX9r-125" value="&lt;p class=&quot;MsoNormal&quot; style=&quot;font-size: 24px;&quot;&gt; Ссылка на товар.&lt;/p&gt;" style="text;html=1;align=left;verticalAlign=middle;resizable=0;points=[];autosize=1;strokeColor=none;fillColor=none;fontSize=24;" vertex="1" parent="RJMTiFoajsU4DwhKSX9r-124">
          <mxGeometry x="11" y="-18.5" width="220" height="90" as="geometry" />
        </mxCell>
        <mxCell id="RJMTiFoajsU4DwhKSX9r-119" value="&lt;p class=&quot;MsoNormal&quot; style=&quot;font-size: 24px; line-height: 120%;&quot;&gt;&lt;span style=&quot;line-height: 107%; font-size: 24px;&quot;&gt;Ссылка на заказ, к которому принадлежит товар.&lt;/span&gt;&lt;/p&gt;" style="text;html=1;align=left;verticalAlign=middle;resizable=0;points=[];autosize=1;strokeColor=none;fillColor=none;fontSize=24;" vertex="1" parent="RJMTiFoajsU4DwhKSX9r-124">
          <mxGeometry x="11" y="-72" width="570" height="90" as="geometry" />
        </mxCell>
        <mxCell id="RJMTiFoajsU4DwhKSX9r-113" value="&lt;p class=&quot;MsoNormal&quot;&gt;&lt;font style=&quot;font-size: 24px;&quot;&gt;Уникальный идентификатор позиции в заказе.&lt;/font&gt;&lt;/p&gt;" style="text;html=1;align=left;verticalAlign=middle;resizable=0;points=[];autosize=1;strokeColor=none;fillColor=none;" vertex="1" parent="RJMTiFoajsU4DwhKSX9r-124">
          <mxGeometry x="11" y="-117" width="540" height="70" as="geometry" />
        </mxCell>
        <mxCell id="RJMTiFoajsU4DwhKSX9r-126" value="" style="shape=tableRow;horizontal=0;swimlaneHead=0;swimlaneBody=0;top=0;left=0;strokeColor=inherit;bottom=0;right=0;dropTarget=0;fontStyle=0;fillColor=none;points=[[0,0.5],[1,0.5]];portConstraint=eastwest;startSize=0;collapsible=0;recursiveResize=0;expand=0;fontSize=24;verticalAlign=middle;align=left;" vertex="1" parent="RJMTiFoajsU4DwhKSX9r-106">
          <mxGeometry y="278" width="1520" height="53" as="geometry" />
        </mxCell>
        <mxCell id="RJMTiFoajsU4DwhKSX9r-127" style="swimlane;swimlaneHead=0;swimlaneBody=0;fontStyle=0;connectable=0;strokeColor=inherit;fillColor=none;startSize=0;collapsible=0;recursiveResize=0;expand=0;fontSize=24;verticalAlign=middle;align=left;" vertex="1" parent="RJMTiFoajsU4DwhKSX9r-126">
          <mxGeometry width="284" height="53" as="geometry">
            <mxRectangle width="284" height="53" as="alternateBounds" />
          </mxGeometry>
        </mxCell>
        <mxCell id="RJMTiFoajsU4DwhKSX9r-128" value="" style="swimlane;swimlaneHead=0;swimlaneBody=0;fontStyle=0;connectable=0;strokeColor=inherit;fillColor=none;startSize=0;collapsible=0;recursiveResize=0;expand=0;fontSize=24;verticalAlign=middle;align=left;" vertex="1" parent="RJMTiFoajsU4DwhKSX9r-126">
          <mxGeometry x="284" width="280" height="53" as="geometry">
            <mxRectangle width="280" height="53" as="alternateBounds" />
          </mxGeometry>
        </mxCell>
        <mxCell id="RJMTiFoajsU4DwhKSX9r-129" value="&lt;span style=&quot;font-size: 24px; line-height: 107%;&quot;&gt;Quantity&lt;/span&gt;" style="text;html=1;align=left;verticalAlign=middle;resizable=0;points=[];autosize=1;strokeColor=none;fillColor=none;fontSize=24;" vertex="1" parent="RJMTiFoajsU4DwhKSX9r-128">
          <mxGeometry x="24" y="6.5" width="110" height="40" as="geometry" />
        </mxCell>
        <mxCell id="RJMTiFoajsU4DwhKSX9r-130" value="" style="swimlane;swimlaneHead=0;swimlaneBody=0;fontStyle=0;connectable=0;strokeColor=inherit;fillColor=none;startSize=0;collapsible=0;recursiveResize=0;expand=0;fontSize=24;verticalAlign=middle;align=left;" vertex="1" parent="RJMTiFoajsU4DwhKSX9r-126">
          <mxGeometry x="564" width="956" height="53" as="geometry">
            <mxRectangle width="956" height="53" as="alternateBounds" />
          </mxGeometry>
        </mxCell>
        <mxCell id="RJMTiFoajsU4DwhKSX9r-131" value="Количество добавленного товара." style="text;html=1;align=left;verticalAlign=middle;resizable=0;points=[];autosize=1;strokeColor=none;fillColor=none;fontSize=24;" vertex="1" parent="RJMTiFoajsU4DwhKSX9r-130">
          <mxGeometry x="11" y="6.5" width="400" height="40" as="geometry" />
        </mxCell>
        <mxCell id="RJMTiFoajsU4DwhKSX9r-132" style="shape=tableRow;horizontal=0;swimlaneHead=0;swimlaneBody=0;top=0;left=0;strokeColor=inherit;bottom=0;right=0;dropTarget=0;fontStyle=0;fillColor=none;points=[[0,0.5],[1,0.5]];portConstraint=eastwest;startSize=0;collapsible=0;recursiveResize=0;expand=0;fontSize=24;verticalAlign=middle;align=left;" vertex="1" parent="RJMTiFoajsU4DwhKSX9r-106">
          <mxGeometry y="331" width="1520" height="53" as="geometry" />
        </mxCell>
        <mxCell id="RJMTiFoajsU4DwhKSX9r-133" style="swimlane;swimlaneHead=0;swimlaneBody=0;fontStyle=0;connectable=0;strokeColor=inherit;fillColor=none;startSize=0;collapsible=0;recursiveResize=0;expand=0;fontSize=24;verticalAlign=middle;align=left;" vertex="1" parent="RJMTiFoajsU4DwhKSX9r-132">
          <mxGeometry width="284" height="53" as="geometry">
            <mxRectangle width="284" height="53" as="alternateBounds" />
          </mxGeometry>
        </mxCell>
        <mxCell id="RJMTiFoajsU4DwhKSX9r-134" style="swimlane;swimlaneHead=0;swimlaneBody=0;fontStyle=0;connectable=0;strokeColor=inherit;fillColor=none;startSize=0;collapsible=0;recursiveResize=0;expand=0;fontSize=24;verticalAlign=middle;align=left;" vertex="1" parent="RJMTiFoajsU4DwhKSX9r-132">
          <mxGeometry x="284" width="280" height="53" as="geometry">
            <mxRectangle width="280" height="53" as="alternateBounds" />
          </mxGeometry>
        </mxCell>
        <mxCell id="RJMTiFoajsU4DwhKSX9r-135" value="&lt;span style=&quot;font-size: 24px; line-height: 107%;&quot;&gt;Price&lt;/span&gt;" style="text;html=1;align=left;verticalAlign=middle;resizable=0;points=[];autosize=1;strokeColor=none;fillColor=none;fontSize=24;" vertex="1" parent="RJMTiFoajsU4DwhKSX9r-134">
          <mxGeometry x="24" y="6.5" width="80" height="40" as="geometry" />
        </mxCell>
        <mxCell id="RJMTiFoajsU4DwhKSX9r-136" style="swimlane;swimlaneHead=0;swimlaneBody=0;fontStyle=0;connectable=0;strokeColor=inherit;fillColor=none;startSize=0;collapsible=0;recursiveResize=0;expand=0;fontSize=24;verticalAlign=middle;align=left;" vertex="1" parent="RJMTiFoajsU4DwhKSX9r-132">
          <mxGeometry x="564" width="956" height="53" as="geometry">
            <mxRectangle width="956" height="53" as="alternateBounds" />
          </mxGeometry>
        </mxCell>
        <mxCell id="RJMTiFoajsU4DwhKSX9r-137" value="Цена товара." style="text;html=1;align=left;verticalAlign=middle;resizable=0;points=[];autosize=1;strokeColor=none;fillColor=none;fontSize=24;" vertex="1" parent="RJMTiFoajsU4DwhKSX9r-136">
          <mxGeometry x="11" y="6.5" width="170" height="40" as="geometry" />
        </mxCell>
        <mxCell id="RJMTiFoajsU4DwhKSX9r-138" style="shape=tableRow;horizontal=0;swimlaneHead=0;swimlaneBody=0;top=0;left=0;strokeColor=inherit;bottom=0;right=0;dropTarget=0;fontStyle=0;fillColor=none;points=[[0,0.5],[1,0.5]];portConstraint=eastwest;startSize=0;collapsible=0;recursiveResize=0;expand=0;fontSize=24;verticalAlign=middle;align=left;" vertex="1" parent="RJMTiFoajsU4DwhKSX9r-106">
          <mxGeometry y="384" width="1520" height="53" as="geometry" />
        </mxCell>
        <mxCell id="RJMTiFoajsU4DwhKSX9r-139" style="swimlane;swimlaneHead=0;swimlaneBody=0;fontStyle=0;connectable=0;strokeColor=inherit;fillColor=none;startSize=0;collapsible=0;recursiveResize=0;expand=0;fontSize=24;verticalAlign=middle;align=left;" vertex="1" parent="RJMTiFoajsU4DwhKSX9r-138">
          <mxGeometry width="284" height="53" as="geometry">
            <mxRectangle width="284" height="53" as="alternateBounds" />
          </mxGeometry>
        </mxCell>
        <mxCell id="RJMTiFoajsU4DwhKSX9r-140" style="swimlane;swimlaneHead=0;swimlaneBody=0;fontStyle=0;connectable=0;strokeColor=inherit;fillColor=none;startSize=0;collapsible=0;recursiveResize=0;expand=0;fontSize=24;verticalAlign=middle;align=left;" vertex="1" parent="RJMTiFoajsU4DwhKSX9r-138">
          <mxGeometry x="284" width="280" height="53" as="geometry">
            <mxRectangle width="280" height="53" as="alternateBounds" />
          </mxGeometry>
        </mxCell>
        <mxCell id="RJMTiFoajsU4DwhKSX9r-141" value="AddedToOrderDate" style="text;html=1;align=left;verticalAlign=middle;resizable=0;points=[];autosize=1;strokeColor=none;fillColor=none;fontSize=24;" vertex="1" parent="RJMTiFoajsU4DwhKSX9r-140">
          <mxGeometry x="24" y="6.5" width="230" height="40" as="geometry" />
        </mxCell>
        <mxCell id="RJMTiFoajsU4DwhKSX9r-142" style="swimlane;swimlaneHead=0;swimlaneBody=0;fontStyle=0;connectable=0;strokeColor=inherit;fillColor=none;startSize=0;collapsible=0;recursiveResize=0;expand=0;fontSize=24;verticalAlign=middle;align=left;" vertex="1" parent="RJMTiFoajsU4DwhKSX9r-138">
          <mxGeometry x="564" width="956" height="53" as="geometry">
            <mxRectangle width="956" height="53" as="alternateBounds" />
          </mxGeometry>
        </mxCell>
        <mxCell id="RJMTiFoajsU4DwhKSX9r-143" value="Дата и время добавления товара к заказу." style="text;html=1;align=left;verticalAlign=middle;resizable=0;points=[];autosize=1;strokeColor=none;fillColor=none;fontSize=24;" vertex="1" parent="RJMTiFoajsU4DwhKSX9r-142">
          <mxGeometry x="11" width="490" height="40" as="geometry" />
        </mxCell>
        <mxCell id="RJMTiFoajsU4DwhKSX9r-152" value="" style="shape=table;childLayout=tableLayout;startSize=0;fillColor=none;collapsible=0;recursiveResize=0;expand=0;fontSize=24;" vertex="1" parent="1">
          <mxGeometry x="-1604" y="-1040" width="1520" height="405" as="geometry" />
        </mxCell>
        <mxCell id="RJMTiFoajsU4DwhKSX9r-153" value="" style="shape=tableRow;horizontal=0;swimlaneHead=0;swimlaneBody=0;top=0;left=0;strokeColor=inherit;bottom=0;right=0;dropTarget=0;fontStyle=0;fillColor=none;points=[[0,0.5],[1,0.5]];portConstraint=eastwest;startSize=0;collapsible=0;recursiveResize=0;expand=0;fontSize=24;" vertex="1" parent="RJMTiFoajsU4DwhKSX9r-152">
          <mxGeometry width="1520" height="120" as="geometry" />
        </mxCell>
        <mxCell id="RJMTiFoajsU4DwhKSX9r-154" value="Родительская сущность" style="swimlane;swimlaneHead=0;swimlaneBody=0;fontStyle=0;strokeColor=inherit;connectable=0;fillColor=none;startSize=60;collapsible=0;recursiveResize=0;expand=0;fontSize=24;" vertex="1" parent="RJMTiFoajsU4DwhKSX9r-153">
          <mxGeometry width="284" height="120" as="geometry">
            <mxRectangle width="284" height="120" as="alternateBounds" />
          </mxGeometry>
        </mxCell>
        <mxCell id="RJMTiFoajsU4DwhKSX9r-155" value="Пользователь" style="text;html=1;align=center;verticalAlign=middle;whiteSpace=wrap;rounded=0;fontSize=24;" vertex="1" parent="RJMTiFoajsU4DwhKSX9r-154">
          <mxGeometry x="67.5" y="70" width="60" height="30" as="geometry" />
        </mxCell>
        <mxCell id="RJMTiFoajsU4DwhKSX9r-156" value="Атрибут" style="swimlane;swimlaneHead=0;swimlaneBody=0;fontStyle=0;strokeColor=inherit;connectable=0;fillColor=none;startSize=60;collapsible=0;recursiveResize=0;expand=0;fontSize=24;" vertex="1" parent="RJMTiFoajsU4DwhKSX9r-153">
          <mxGeometry x="284" width="280" height="120" as="geometry">
            <mxRectangle width="280" height="120" as="alternateBounds" />
          </mxGeometry>
        </mxCell>
        <mxCell id="RJMTiFoajsU4DwhKSX9r-202" value="&lt;font style=&quot;font-size: 24px;&quot;&gt;----&lt;/font&gt;" style="text;html=1;align=center;verticalAlign=middle;resizable=0;points=[];autosize=1;strokeColor=none;fillColor=none;" vertex="1" parent="RJMTiFoajsU4DwhKSX9r-156">
          <mxGeometry x="30" y="65" width="60" height="40" as="geometry" />
        </mxCell>
        <mxCell id="RJMTiFoajsU4DwhKSX9r-158" value="Описание" style="swimlane;swimlaneHead=0;swimlaneBody=0;fontStyle=0;strokeColor=inherit;connectable=0;fillColor=none;startSize=60;collapsible=0;recursiveResize=0;expand=0;fontSize=24;" vertex="1" parent="RJMTiFoajsU4DwhKSX9r-153">
          <mxGeometry x="564" width="956" height="120" as="geometry">
            <mxRectangle width="956" height="120" as="alternateBounds" />
          </mxGeometry>
        </mxCell>
        <mxCell id="RJMTiFoajsU4DwhKSX9r-201" value="&lt;font style=&quot;font-size: 24px;&quot;&gt;Объект пользователь&lt;/font&gt;" style="text;html=1;align=center;verticalAlign=middle;resizable=0;points=[];autosize=1;strokeColor=none;fillColor=none;" vertex="1" parent="RJMTiFoajsU4DwhKSX9r-158">
          <mxGeometry x="12" y="65" width="260" height="40" as="geometry" />
        </mxCell>
        <mxCell id="RJMTiFoajsU4DwhKSX9r-207" style="shape=tableRow;horizontal=0;swimlaneHead=0;swimlaneBody=0;top=0;left=0;strokeColor=inherit;bottom=0;right=0;dropTarget=0;fontStyle=0;fillColor=none;points=[[0,0.5],[1,0.5]];portConstraint=eastwest;startSize=0;collapsible=0;recursiveResize=0;expand=0;fontSize=24;" vertex="1" parent="RJMTiFoajsU4DwhKSX9r-152">
          <mxGeometry y="120" width="1520" height="60" as="geometry" />
        </mxCell>
        <mxCell id="RJMTiFoajsU4DwhKSX9r-208" style="swimlane;swimlaneHead=0;swimlaneBody=0;fontStyle=0;connectable=0;strokeColor=inherit;fillColor=none;startSize=0;collapsible=0;recursiveResize=0;expand=0;fontSize=24;" vertex="1" parent="RJMTiFoajsU4DwhKSX9r-207">
          <mxGeometry width="284" height="60" as="geometry">
            <mxRectangle width="284" height="60" as="alternateBounds" />
          </mxGeometry>
        </mxCell>
        <mxCell id="RJMTiFoajsU4DwhKSX9r-209" style="swimlane;swimlaneHead=0;swimlaneBody=0;fontStyle=0;connectable=0;strokeColor=inherit;fillColor=none;startSize=0;collapsible=0;recursiveResize=0;expand=0;fontSize=24;" vertex="1" parent="RJMTiFoajsU4DwhKSX9r-207">
          <mxGeometry x="284" width="280" height="60" as="geometry">
            <mxRectangle width="280" height="60" as="alternateBounds" />
          </mxGeometry>
        </mxCell>
        <mxCell id="RJMTiFoajsU4DwhKSX9r-157" value="&lt;span style=&quot;font-size: 24px; line-height: 107%;&quot;&gt;UserID&lt;/span&gt;" style="text;html=1;align=center;verticalAlign=middle;resizable=0;points=[];autosize=1;strokeColor=none;fillColor=none;fontSize=24;" vertex="1" parent="RJMTiFoajsU4DwhKSX9r-209">
          <mxGeometry x="27" y="10" width="100" height="40" as="geometry" />
        </mxCell>
        <mxCell id="RJMTiFoajsU4DwhKSX9r-210" style="swimlane;swimlaneHead=0;swimlaneBody=0;fontStyle=0;connectable=0;strokeColor=inherit;fillColor=none;startSize=0;collapsible=0;recursiveResize=0;expand=0;fontSize=24;" vertex="1" parent="RJMTiFoajsU4DwhKSX9r-207">
          <mxGeometry x="564" width="956" height="60" as="geometry">
            <mxRectangle width="956" height="60" as="alternateBounds" />
          </mxGeometry>
        </mxCell>
        <mxCell id="RJMTiFoajsU4DwhKSX9r-159" value="&lt;p class=&quot;MsoNormal&quot; style=&quot;font-size: 24px;&quot;&gt;Уникальный идентификатор пользователя.&lt;/p&gt;" style="text;html=1;align=center;verticalAlign=middle;resizable=0;points=[];autosize=1;strokeColor=none;fillColor=none;fontSize=24;" vertex="1" parent="RJMTiFoajsU4DwhKSX9r-210">
          <mxGeometry x="12" y="-15" width="500" height="90" as="geometry" />
        </mxCell>
        <mxCell id="RJMTiFoajsU4DwhKSX9r-160" value="" style="shape=tableRow;horizontal=0;swimlaneHead=0;swimlaneBody=0;top=0;left=0;strokeColor=inherit;bottom=0;right=0;dropTarget=0;fontStyle=0;fillColor=none;points=[[0,0.5],[1,0.5]];portConstraint=eastwest;startSize=0;collapsible=0;recursiveResize=0;expand=0;fontSize=24;" vertex="1" parent="RJMTiFoajsU4DwhKSX9r-152">
          <mxGeometry y="180" width="1520" height="60" as="geometry" />
        </mxCell>
        <mxCell id="RJMTiFoajsU4DwhKSX9r-161" style="swimlane;swimlaneHead=0;swimlaneBody=0;fontStyle=0;connectable=0;strokeColor=inherit;fillColor=none;startSize=0;collapsible=0;recursiveResize=0;expand=0;fontSize=24;" vertex="1" parent="RJMTiFoajsU4DwhKSX9r-160">
          <mxGeometry width="284" height="60" as="geometry">
            <mxRectangle width="284" height="60" as="alternateBounds" />
          </mxGeometry>
        </mxCell>
        <mxCell id="RJMTiFoajsU4DwhKSX9r-162" value="" style="swimlane;swimlaneHead=0;swimlaneBody=0;fontStyle=0;connectable=0;strokeColor=inherit;fillColor=none;startSize=0;collapsible=0;recursiveResize=0;expand=0;fontSize=24;" vertex="1" parent="RJMTiFoajsU4DwhKSX9r-160">
          <mxGeometry x="284" width="280" height="60" as="geometry">
            <mxRectangle width="280" height="60" as="alternateBounds" />
          </mxGeometry>
        </mxCell>
        <mxCell id="RJMTiFoajsU4DwhKSX9r-163" value="&lt;span style=&quot;font-size: 24px; line-height: 107%;&quot;&gt;Name&lt;/span&gt;" style="text;html=1;align=center;verticalAlign=middle;resizable=0;points=[];autosize=1;strokeColor=none;fillColor=none;fontSize=24;" vertex="1" parent="RJMTiFoajsU4DwhKSX9r-162">
          <mxGeometry x="27" y="13.5" width="90" height="40" as="geometry" />
        </mxCell>
        <mxCell id="RJMTiFoajsU4DwhKSX9r-164" value="" style="swimlane;swimlaneHead=0;swimlaneBody=0;fontStyle=0;connectable=0;strokeColor=inherit;fillColor=none;startSize=0;collapsible=0;recursiveResize=0;expand=0;fontSize=24;" vertex="1" parent="RJMTiFoajsU4DwhKSX9r-160">
          <mxGeometry x="564" width="956" height="60" as="geometry">
            <mxRectangle width="956" height="60" as="alternateBounds" />
          </mxGeometry>
        </mxCell>
        <mxCell id="RJMTiFoajsU4DwhKSX9r-165" value="&lt;p class=&quot;MsoNormal&quot; style=&quot;font-size: 24px; line-height: 120%;&quot;&gt;&lt;span style=&quot;line-height: 107%; font-size: 24px;&quot;&gt;Имя пользователя&lt;/span&gt;&lt;/p&gt;" style="text;html=1;align=left;verticalAlign=middle;resizable=0;points=[];autosize=1;strokeColor=none;fillColor=none;fontSize=24;" vertex="1" parent="RJMTiFoajsU4DwhKSX9r-164">
          <mxGeometry x="18" y="-11.5" width="230" height="90" as="geometry" />
        </mxCell>
        <mxCell id="RJMTiFoajsU4DwhKSX9r-166" value="" style="shape=tableRow;horizontal=0;swimlaneHead=0;swimlaneBody=0;top=0;left=0;strokeColor=inherit;bottom=0;right=0;dropTarget=0;fontStyle=0;fillColor=none;points=[[0,0.5],[1,0.5]];portConstraint=eastwest;startSize=0;collapsible=0;recursiveResize=0;expand=0;fontSize=24;" vertex="1" parent="RJMTiFoajsU4DwhKSX9r-152">
          <mxGeometry y="240" width="1520" height="54" as="geometry" />
        </mxCell>
        <mxCell id="RJMTiFoajsU4DwhKSX9r-167" style="swimlane;swimlaneHead=0;swimlaneBody=0;fontStyle=0;connectable=0;strokeColor=inherit;fillColor=none;startSize=0;collapsible=0;recursiveResize=0;expand=0;fontSize=24;" vertex="1" parent="RJMTiFoajsU4DwhKSX9r-166">
          <mxGeometry width="284" height="54" as="geometry">
            <mxRectangle width="284" height="54" as="alternateBounds" />
          </mxGeometry>
        </mxCell>
        <mxCell id="RJMTiFoajsU4DwhKSX9r-168" value="" style="swimlane;swimlaneHead=0;swimlaneBody=0;fontStyle=0;connectable=0;strokeColor=inherit;fillColor=none;startSize=0;collapsible=0;recursiveResize=0;expand=0;fontSize=24;" vertex="1" parent="RJMTiFoajsU4DwhKSX9r-166">
          <mxGeometry x="284" width="280" height="54" as="geometry">
            <mxRectangle width="280" height="54" as="alternateBounds" />
          </mxGeometry>
        </mxCell>
        <mxCell id="RJMTiFoajsU4DwhKSX9r-169" value="&lt;span style=&quot;font-size: 24px; line-height: 107%;&quot;&gt;Email&lt;/span&gt;" style="text;html=1;align=center;verticalAlign=middle;resizable=0;points=[];autosize=1;strokeColor=none;fillColor=none;fontSize=24;" vertex="1" parent="RJMTiFoajsU4DwhKSX9r-168">
          <mxGeometry x="27" y="7" width="80" height="40" as="geometry" />
        </mxCell>
        <mxCell id="RJMTiFoajsU4DwhKSX9r-170" value="" style="swimlane;swimlaneHead=0;swimlaneBody=0;fontStyle=0;connectable=0;strokeColor=inherit;fillColor=none;startSize=0;collapsible=0;recursiveResize=0;expand=0;fontSize=24;" vertex="1" parent="RJMTiFoajsU4DwhKSX9r-166">
          <mxGeometry x="564" width="956" height="54" as="geometry">
            <mxRectangle width="956" height="54" as="alternateBounds" />
          </mxGeometry>
        </mxCell>
        <mxCell id="RJMTiFoajsU4DwhKSX9r-171" value="&lt;p class=&quot;MsoNormal&quot; style=&quot;font-size: 24px;&quot;&gt;Уникальный идентификатор пользователя.&lt;/p&gt;" style="text;html=1;align=center;verticalAlign=middle;resizable=0;points=[];autosize=1;strokeColor=none;fillColor=none;fontSize=24;" vertex="1" parent="RJMTiFoajsU4DwhKSX9r-170">
          <mxGeometry x="12" y="-18" width="500" height="90" as="geometry" />
        </mxCell>
        <mxCell id="RJMTiFoajsU4DwhKSX9r-172" value="" style="shape=tableRow;horizontal=0;swimlaneHead=0;swimlaneBody=0;top=0;left=0;strokeColor=inherit;bottom=0;right=0;dropTarget=0;fontStyle=0;fillColor=none;points=[[0,0.5],[1,0.5]];portConstraint=eastwest;startSize=0;collapsible=0;recursiveResize=0;expand=0;fontSize=24;" vertex="1" parent="RJMTiFoajsU4DwhKSX9r-152">
          <mxGeometry y="294" width="1520" height="55" as="geometry" />
        </mxCell>
        <mxCell id="RJMTiFoajsU4DwhKSX9r-173" style="swimlane;swimlaneHead=0;swimlaneBody=0;fontStyle=0;connectable=0;strokeColor=inherit;fillColor=none;startSize=0;collapsible=0;recursiveResize=0;expand=0;fontSize=24;" vertex="1" parent="RJMTiFoajsU4DwhKSX9r-172">
          <mxGeometry width="284" height="55" as="geometry">
            <mxRectangle width="284" height="55" as="alternateBounds" />
          </mxGeometry>
        </mxCell>
        <mxCell id="RJMTiFoajsU4DwhKSX9r-174" value="" style="swimlane;swimlaneHead=0;swimlaneBody=0;fontStyle=0;connectable=0;strokeColor=inherit;fillColor=none;startSize=0;collapsible=0;recursiveResize=0;expand=0;fontSize=24;" vertex="1" parent="RJMTiFoajsU4DwhKSX9r-172">
          <mxGeometry x="284" width="280" height="55" as="geometry">
            <mxRectangle width="280" height="55" as="alternateBounds" />
          </mxGeometry>
        </mxCell>
        <mxCell id="RJMTiFoajsU4DwhKSX9r-175" value="&lt;span style=&quot;font-size: 24px; line-height: 107%;&quot;&gt;PhoneNumber&lt;/span&gt;" style="text;html=1;align=center;verticalAlign=middle;resizable=0;points=[];autosize=1;strokeColor=none;fillColor=none;fontSize=24;" vertex="1" parent="RJMTiFoajsU4DwhKSX9r-174">
          <mxGeometry x="25" y="7" width="180" height="40" as="geometry" />
        </mxCell>
        <mxCell id="RJMTiFoajsU4DwhKSX9r-176" value="" style="swimlane;swimlaneHead=0;swimlaneBody=0;fontStyle=0;connectable=0;strokeColor=inherit;fillColor=none;startSize=0;collapsible=0;recursiveResize=0;expand=0;fontSize=24;" vertex="1" parent="RJMTiFoajsU4DwhKSX9r-172">
          <mxGeometry x="564" width="956" height="55" as="geometry">
            <mxRectangle width="956" height="55" as="alternateBounds" />
          </mxGeometry>
        </mxCell>
        <mxCell id="RJMTiFoajsU4DwhKSX9r-212" value="&lt;font style=&quot;font-size: 24px;&quot;&gt;Телефон пользователя&lt;/font&gt;" style="text;html=1;align=center;verticalAlign=middle;resizable=0;points=[];autosize=1;strokeColor=none;fillColor=none;" vertex="1" parent="RJMTiFoajsU4DwhKSX9r-176">
          <mxGeometry x="2" y="7" width="280" height="40" as="geometry" />
        </mxCell>
        <mxCell id="RJMTiFoajsU4DwhKSX9r-177" style="shape=tableRow;horizontal=0;swimlaneHead=0;swimlaneBody=0;top=0;left=0;strokeColor=inherit;bottom=0;right=0;dropTarget=0;fontStyle=0;fillColor=none;points=[[0,0.5],[1,0.5]];portConstraint=eastwest;startSize=0;collapsible=0;recursiveResize=0;expand=0;fontSize=24;" vertex="1" parent="RJMTiFoajsU4DwhKSX9r-152">
          <mxGeometry y="349" width="1520" height="56" as="geometry" />
        </mxCell>
        <mxCell id="RJMTiFoajsU4DwhKSX9r-178" style="swimlane;swimlaneHead=0;swimlaneBody=0;fontStyle=0;connectable=0;strokeColor=inherit;fillColor=none;startSize=0;collapsible=0;recursiveResize=0;expand=0;fontSize=24;" vertex="1" parent="RJMTiFoajsU4DwhKSX9r-177">
          <mxGeometry width="284" height="56" as="geometry">
            <mxRectangle width="284" height="56" as="alternateBounds" />
          </mxGeometry>
        </mxCell>
        <mxCell id="RJMTiFoajsU4DwhKSX9r-179" style="swimlane;swimlaneHead=0;swimlaneBody=0;fontStyle=0;connectable=0;strokeColor=inherit;fillColor=none;startSize=0;collapsible=0;recursiveResize=0;expand=0;fontSize=24;" vertex="1" parent="RJMTiFoajsU4DwhKSX9r-177">
          <mxGeometry x="284" width="280" height="56" as="geometry">
            <mxRectangle width="280" height="56" as="alternateBounds" />
          </mxGeometry>
        </mxCell>
        <mxCell id="RJMTiFoajsU4DwhKSX9r-180" value="&lt;span style=&quot;font-size: 24px; line-height: 107%;&quot;&gt;Address&lt;/span&gt;" style="text;html=1;align=center;verticalAlign=middle;resizable=0;points=[];autosize=1;strokeColor=none;fillColor=none;fontSize=24;" vertex="1" parent="RJMTiFoajsU4DwhKSX9r-179">
          <mxGeometry x="25" y="8" width="110" height="40" as="geometry" />
        </mxCell>
        <mxCell id="RJMTiFoajsU4DwhKSX9r-181" style="swimlane;swimlaneHead=0;swimlaneBody=0;fontStyle=0;connectable=0;strokeColor=inherit;fillColor=none;startSize=0;collapsible=0;recursiveResize=0;expand=0;fontSize=24;" vertex="1" parent="RJMTiFoajsU4DwhKSX9r-177">
          <mxGeometry x="564" width="956" height="56" as="geometry">
            <mxRectangle width="956" height="56" as="alternateBounds" />
          </mxGeometry>
        </mxCell>
        <mxCell id="RJMTiFoajsU4DwhKSX9r-213" value="&lt;font style=&quot;font-size: 24px;&quot;&gt;Адрес доставки.&lt;/font&gt;" style="text;html=1;align=center;verticalAlign=middle;resizable=0;points=[];autosize=1;strokeColor=none;fillColor=none;" vertex="1" parent="RJMTiFoajsU4DwhKSX9r-181">
          <mxGeometry x="12" y="8" width="210" height="40" as="geometry" />
        </mxCell>
        <mxCell id="RJMTiFoajsU4DwhKSX9r-211" value="Объект Пользователь" style="text;strokeColor=none;fillColor=none;spacingLeft=4;spacingRight=4;overflow=hidden;rotatable=0;points=[[0,0.5],[1,0.5]];portConstraint=eastwest;fontSize=36;whiteSpace=wrap;html=1;fontStyle=1" vertex="1" parent="1">
          <mxGeometry x="-1604" y="-1090" width="420" height="60" as="geometry" />
        </mxCell>
        <mxCell id="RJMTiFoajsU4DwhKSX9r-223" value="&lt;b&gt;Объект - Товар&lt;/b&gt;" style="text;strokeColor=none;fillColor=none;spacingLeft=4;spacingRight=4;overflow=hidden;rotatable=0;points=[[0,0.5],[1,0.5]];portConstraint=eastwest;fontSize=36;whiteSpace=wrap;html=1;" vertex="1" parent="1">
          <mxGeometry x="-1600" y="1410" width="710" height="70" as="geometry" />
        </mxCell>
        <mxCell id="RJMTiFoajsU4DwhKSX9r-224" value="" style="shape=table;childLayout=tableLayout;startSize=0;fillColor=none;collapsible=0;recursiveResize=0;expand=0;fontSize=17;" vertex="1" parent="1">
          <mxGeometry x="-1596" y="1460" width="1520" height="543" as="geometry" />
        </mxCell>
        <mxCell id="RJMTiFoajsU4DwhKSX9r-225" value="" style="shape=tableRow;horizontal=0;swimlaneHead=0;swimlaneBody=0;top=0;left=0;strokeColor=inherit;bottom=0;right=0;dropTarget=0;fontStyle=0;fillColor=none;points=[[0,0.5],[1,0.5]];portConstraint=eastwest;startSize=0;collapsible=0;recursiveResize=0;expand=0;fontSize=17;verticalAlign=middle;align=left;" vertex="1" parent="RJMTiFoajsU4DwhKSX9r-224">
          <mxGeometry width="1520" height="119" as="geometry" />
        </mxCell>
        <mxCell id="RJMTiFoajsU4DwhKSX9r-226" value="Родительская сущность" style="swimlane;swimlaneHead=0;swimlaneBody=0;fontStyle=0;strokeColor=inherit;connectable=0;fillColor=none;startSize=70;collapsible=0;recursiveResize=0;expand=0;fontSize=24;verticalAlign=middle;align=center;" vertex="1" parent="RJMTiFoajsU4DwhKSX9r-225">
          <mxGeometry width="280" height="119" as="geometry">
            <mxRectangle width="280" height="119" as="alternateBounds" />
          </mxGeometry>
        </mxCell>
        <mxCell id="RJMTiFoajsU4DwhKSX9r-227" value="Товар&amp;nbsp;" style="text;html=1;align=left;verticalAlign=middle;whiteSpace=wrap;rounded=0;fontSize=24;" vertex="1" parent="RJMTiFoajsU4DwhKSX9r-226">
          <mxGeometry x="18" y="75" width="192" height="30" as="geometry" />
        </mxCell>
        <mxCell id="RJMTiFoajsU4DwhKSX9r-228" value="Атрибут" style="swimlane;swimlaneHead=0;swimlaneBody=0;fontStyle=0;strokeColor=inherit;connectable=0;fillColor=none;startSize=70;collapsible=0;recursiveResize=0;expand=0;fontSize=24;verticalAlign=middle;align=center;" vertex="1" parent="RJMTiFoajsU4DwhKSX9r-225">
          <mxGeometry x="280" width="280" height="119" as="geometry">
            <mxRectangle width="280" height="119" as="alternateBounds" />
          </mxGeometry>
        </mxCell>
        <mxCell id="RJMTiFoajsU4DwhKSX9r-229" value="&lt;font style=&quot;font-size: 24px;&quot;&gt;----&lt;/font&gt;" style="text;html=1;align=center;verticalAlign=middle;resizable=0;points=[];autosize=1;strokeColor=none;fillColor=none;" vertex="1" parent="RJMTiFoajsU4DwhKSX9r-228">
          <mxGeometry x="20" y="75" width="60" height="40" as="geometry" />
        </mxCell>
        <mxCell id="RJMTiFoajsU4DwhKSX9r-230" value="Описание" style="swimlane;swimlaneHead=0;swimlaneBody=0;fontStyle=0;strokeColor=inherit;connectable=0;fillColor=none;startSize=70;collapsible=0;recursiveResize=0;expand=0;fontSize=24;verticalAlign=middle;align=center;" vertex="1" parent="RJMTiFoajsU4DwhKSX9r-225">
          <mxGeometry x="560" width="960" height="119" as="geometry">
            <mxRectangle width="960" height="119" as="alternateBounds" />
          </mxGeometry>
        </mxCell>
        <mxCell id="RJMTiFoajsU4DwhKSX9r-231" value="Объект товар.&amp;nbsp;" style="text;html=1;align=left;verticalAlign=middle;whiteSpace=wrap;rounded=0;fontSize=24;" vertex="1" parent="RJMTiFoajsU4DwhKSX9r-230">
          <mxGeometry x="7" y="80" width="343" height="30" as="geometry" />
        </mxCell>
        <mxCell id="RJMTiFoajsU4DwhKSX9r-232" style="shape=tableRow;horizontal=0;swimlaneHead=0;swimlaneBody=0;top=0;left=0;strokeColor=inherit;bottom=0;right=0;dropTarget=0;fontStyle=0;fillColor=none;points=[[0,0.5],[1,0.5]];portConstraint=eastwest;startSize=0;collapsible=0;recursiveResize=0;expand=0;fontSize=24;verticalAlign=middle;align=left;" vertex="1" parent="RJMTiFoajsU4DwhKSX9r-224">
          <mxGeometry y="119" width="1520" height="53" as="geometry" />
        </mxCell>
        <mxCell id="RJMTiFoajsU4DwhKSX9r-233" style="swimlane;swimlaneHead=0;swimlaneBody=0;fontStyle=0;connectable=0;strokeColor=inherit;fillColor=none;startSize=0;collapsible=0;recursiveResize=0;expand=0;fontSize=24;verticalAlign=middle;align=left;" vertex="1" parent="RJMTiFoajsU4DwhKSX9r-232">
          <mxGeometry width="280" height="53" as="geometry">
            <mxRectangle width="280" height="53" as="alternateBounds" />
          </mxGeometry>
        </mxCell>
        <mxCell id="RJMTiFoajsU4DwhKSX9r-234" style="swimlane;swimlaneHead=0;swimlaneBody=0;fontStyle=0;connectable=0;strokeColor=inherit;fillColor=none;startSize=0;collapsible=0;recursiveResize=0;expand=0;fontSize=24;verticalAlign=middle;align=left;" vertex="1" parent="RJMTiFoajsU4DwhKSX9r-232">
          <mxGeometry x="280" width="280" height="53" as="geometry">
            <mxRectangle width="280" height="53" as="alternateBounds" />
          </mxGeometry>
        </mxCell>
        <mxCell id="RJMTiFoajsU4DwhKSX9r-235" value="&lt;span style=&quot;font-weight: normal;&quot;&gt;ProductID&lt;/span&gt;" style="text;html=1;align=left;verticalAlign=middle;resizable=0;points=[];autosize=1;strokeColor=none;fillColor=none;fontSize=24;fontStyle=1" vertex="1" parent="RJMTiFoajsU4DwhKSX9r-234">
          <mxGeometry x="23" y="6.5" width="130" height="40" as="geometry" />
        </mxCell>
        <mxCell id="RJMTiFoajsU4DwhKSX9r-236" style="swimlane;swimlaneHead=0;swimlaneBody=0;fontStyle=0;connectable=0;strokeColor=inherit;fillColor=none;startSize=0;collapsible=0;recursiveResize=0;expand=0;fontSize=24;verticalAlign=middle;align=left;" vertex="1" parent="RJMTiFoajsU4DwhKSX9r-232">
          <mxGeometry x="560" width="960" height="53" as="geometry">
            <mxRectangle width="960" height="53" as="alternateBounds" />
          </mxGeometry>
        </mxCell>
        <mxCell id="RJMTiFoajsU4DwhKSX9r-237" value="" style="shape=tableRow;horizontal=0;swimlaneHead=0;swimlaneBody=0;top=0;left=0;strokeColor=inherit;bottom=0;right=0;dropTarget=0;fontStyle=0;fillColor=none;points=[[0,0.5],[1,0.5]];portConstraint=eastwest;startSize=0;collapsible=0;recursiveResize=0;expand=0;fontSize=24;verticalAlign=middle;align=left;" vertex="1" parent="RJMTiFoajsU4DwhKSX9r-224">
          <mxGeometry y="172" width="1520" height="53" as="geometry" />
        </mxCell>
        <mxCell id="RJMTiFoajsU4DwhKSX9r-238" style="swimlane;swimlaneHead=0;swimlaneBody=0;fontStyle=0;connectable=0;strokeColor=inherit;fillColor=none;startSize=0;collapsible=0;recursiveResize=0;expand=0;fontSize=24;verticalAlign=middle;align=left;" vertex="1" parent="RJMTiFoajsU4DwhKSX9r-237">
          <mxGeometry width="280" height="53" as="geometry">
            <mxRectangle width="280" height="53" as="alternateBounds" />
          </mxGeometry>
        </mxCell>
        <mxCell id="RJMTiFoajsU4DwhKSX9r-239" value="" style="swimlane;swimlaneHead=0;swimlaneBody=0;fontStyle=0;connectable=0;strokeColor=inherit;fillColor=none;startSize=0;collapsible=0;recursiveResize=0;expand=0;fontSize=24;verticalAlign=middle;align=left;" vertex="1" parent="RJMTiFoajsU4DwhKSX9r-237">
          <mxGeometry x="280" width="280" height="53" as="geometry">
            <mxRectangle width="280" height="53" as="alternateBounds" />
          </mxGeometry>
        </mxCell>
        <mxCell id="RJMTiFoajsU4DwhKSX9r-240" value="&lt;span style=&quot;font-size: 24px; line-height: 107%;&quot;&gt;Name&lt;/span&gt;" style="text;html=1;align=left;verticalAlign=middle;resizable=0;points=[];autosize=1;strokeColor=none;fillColor=none;fontSize=24;" vertex="1" parent="RJMTiFoajsU4DwhKSX9r-239">
          <mxGeometry x="24" y="6" width="90" height="40" as="geometry" />
        </mxCell>
        <mxCell id="RJMTiFoajsU4DwhKSX9r-241" value="" style="swimlane;swimlaneHead=0;swimlaneBody=0;fontStyle=0;connectable=0;strokeColor=inherit;fillColor=none;startSize=0;collapsible=0;recursiveResize=0;expand=0;fontSize=24;verticalAlign=middle;align=left;" vertex="1" parent="RJMTiFoajsU4DwhKSX9r-237">
          <mxGeometry x="560" width="960" height="53" as="geometry">
            <mxRectangle width="960" height="53" as="alternateBounds" />
          </mxGeometry>
        </mxCell>
        <mxCell id="RJMTiFoajsU4DwhKSX9r-242" value="" style="shape=tableRow;horizontal=0;swimlaneHead=0;swimlaneBody=0;top=0;left=0;strokeColor=inherit;bottom=0;right=0;dropTarget=0;fontStyle=0;fillColor=none;points=[[0,0.5],[1,0.5]];portConstraint=eastwest;startSize=0;collapsible=0;recursiveResize=0;expand=0;fontSize=24;verticalAlign=middle;align=left;" vertex="1" parent="RJMTiFoajsU4DwhKSX9r-224">
          <mxGeometry y="225" width="1520" height="53" as="geometry" />
        </mxCell>
        <mxCell id="RJMTiFoajsU4DwhKSX9r-243" style="swimlane;swimlaneHead=0;swimlaneBody=0;fontStyle=0;connectable=0;strokeColor=inherit;fillColor=none;startSize=0;collapsible=0;recursiveResize=0;expand=0;fontSize=24;verticalAlign=middle;align=left;" vertex="1" parent="RJMTiFoajsU4DwhKSX9r-242">
          <mxGeometry width="280" height="53" as="geometry">
            <mxRectangle width="280" height="53" as="alternateBounds" />
          </mxGeometry>
        </mxCell>
        <mxCell id="RJMTiFoajsU4DwhKSX9r-244" value="" style="swimlane;swimlaneHead=0;swimlaneBody=0;fontStyle=0;connectable=0;strokeColor=inherit;fillColor=none;startSize=0;collapsible=0;recursiveResize=0;expand=0;fontSize=24;verticalAlign=middle;align=left;" vertex="1" parent="RJMTiFoajsU4DwhKSX9r-242">
          <mxGeometry x="280" width="280" height="53" as="geometry">
            <mxRectangle width="280" height="53" as="alternateBounds" />
          </mxGeometry>
        </mxCell>
        <mxCell id="RJMTiFoajsU4DwhKSX9r-245" value="&lt;span style=&quot;font-size: 24px; line-height: 107%;&quot;&gt;Description&lt;/span&gt;" style="text;html=1;align=left;verticalAlign=middle;resizable=0;points=[];autosize=1;strokeColor=none;fillColor=none;fontSize=24;" vertex="1" parent="RJMTiFoajsU4DwhKSX9r-244">
          <mxGeometry x="24" y="6.5" width="140" height="40" as="geometry" />
        </mxCell>
        <mxCell id="RJMTiFoajsU4DwhKSX9r-246" value="" style="swimlane;swimlaneHead=0;swimlaneBody=0;fontStyle=0;connectable=0;strokeColor=inherit;fillColor=none;startSize=0;collapsible=0;recursiveResize=0;expand=0;fontSize=24;verticalAlign=middle;align=left;" vertex="1" parent="RJMTiFoajsU4DwhKSX9r-242">
          <mxGeometry x="560" width="960" height="53" as="geometry">
            <mxRectangle width="960" height="53" as="alternateBounds" />
          </mxGeometry>
        </mxCell>
        <mxCell id="RJMTiFoajsU4DwhKSX9r-247" value="&lt;p class=&quot;MsoNormal&quot; style=&quot;font-size: 24px;&quot;&gt; Описание товара.&lt;/p&gt;" style="text;html=1;align=left;verticalAlign=middle;resizable=0;points=[];autosize=1;strokeColor=none;fillColor=none;fontSize=24;" vertex="1" parent="RJMTiFoajsU4DwhKSX9r-246">
          <mxGeometry x="11" y="-18.5" width="220" height="90" as="geometry" />
        </mxCell>
        <mxCell id="RJMTiFoajsU4DwhKSX9r-248" value="&lt;p class=&quot;MsoNormal&quot; style=&quot;font-size: 24px; line-height: 120%;&quot;&gt;&lt;span style=&quot;line-height: 107%; font-size: 24px;&quot;&gt;Название товара.&lt;/span&gt;&lt;/p&gt;" style="text;html=1;align=left;verticalAlign=middle;resizable=0;points=[];autosize=1;strokeColor=none;fillColor=none;fontSize=24;" vertex="1" parent="RJMTiFoajsU4DwhKSX9r-246">
          <mxGeometry x="11" y="-72" width="220" height="90" as="geometry" />
        </mxCell>
        <mxCell id="RJMTiFoajsU4DwhKSX9r-249" value="&lt;p class=&quot;MsoNormal&quot;&gt;&lt;font style=&quot;font-size: 24px;&quot;&gt;Уникальный идентификатор товара.&lt;/font&gt;&lt;/p&gt;" style="text;html=1;align=left;verticalAlign=middle;resizable=0;points=[];autosize=1;strokeColor=none;fillColor=none;" vertex="1" parent="RJMTiFoajsU4DwhKSX9r-246">
          <mxGeometry x="11" y="-117" width="430" height="70" as="geometry" />
        </mxCell>
        <mxCell id="RJMTiFoajsU4DwhKSX9r-250" value="" style="shape=tableRow;horizontal=0;swimlaneHead=0;swimlaneBody=0;top=0;left=0;strokeColor=inherit;bottom=0;right=0;dropTarget=0;fontStyle=0;fillColor=none;points=[[0,0.5],[1,0.5]];portConstraint=eastwest;startSize=0;collapsible=0;recursiveResize=0;expand=0;fontSize=24;verticalAlign=middle;align=left;" vertex="1" parent="RJMTiFoajsU4DwhKSX9r-224">
          <mxGeometry y="278" width="1520" height="53" as="geometry" />
        </mxCell>
        <mxCell id="RJMTiFoajsU4DwhKSX9r-251" style="swimlane;swimlaneHead=0;swimlaneBody=0;fontStyle=0;connectable=0;strokeColor=inherit;fillColor=none;startSize=0;collapsible=0;recursiveResize=0;expand=0;fontSize=24;verticalAlign=middle;align=left;" vertex="1" parent="RJMTiFoajsU4DwhKSX9r-250">
          <mxGeometry width="280" height="53" as="geometry">
            <mxRectangle width="280" height="53" as="alternateBounds" />
          </mxGeometry>
        </mxCell>
        <mxCell id="RJMTiFoajsU4DwhKSX9r-252" value="" style="swimlane;swimlaneHead=0;swimlaneBody=0;fontStyle=0;connectable=0;strokeColor=inherit;fillColor=none;startSize=0;collapsible=0;recursiveResize=0;expand=0;fontSize=24;verticalAlign=middle;align=left;" vertex="1" parent="RJMTiFoajsU4DwhKSX9r-250">
          <mxGeometry x="280" width="280" height="53" as="geometry">
            <mxRectangle width="280" height="53" as="alternateBounds" />
          </mxGeometry>
        </mxCell>
        <mxCell id="RJMTiFoajsU4DwhKSX9r-253" value="&lt;span style=&quot;font-size: 24px; line-height: 107%;&quot;&gt;Price&lt;/span&gt;" style="text;html=1;align=left;verticalAlign=middle;resizable=0;points=[];autosize=1;strokeColor=none;fillColor=none;fontSize=24;" vertex="1" parent="RJMTiFoajsU4DwhKSX9r-252">
          <mxGeometry x="24" y="6.5" width="80" height="40" as="geometry" />
        </mxCell>
        <mxCell id="RJMTiFoajsU4DwhKSX9r-254" value="" style="swimlane;swimlaneHead=0;swimlaneBody=0;fontStyle=0;connectable=0;strokeColor=inherit;fillColor=none;startSize=0;collapsible=0;recursiveResize=0;expand=0;fontSize=24;verticalAlign=middle;align=left;" vertex="1" parent="RJMTiFoajsU4DwhKSX9r-250">
          <mxGeometry x="560" width="960" height="53" as="geometry">
            <mxRectangle width="960" height="53" as="alternateBounds" />
          </mxGeometry>
        </mxCell>
        <mxCell id="RJMTiFoajsU4DwhKSX9r-255" value="Текущая цена товара." style="text;html=1;align=left;verticalAlign=middle;resizable=0;points=[];autosize=1;strokeColor=none;fillColor=none;fontSize=24;" vertex="1" parent="RJMTiFoajsU4DwhKSX9r-254">
          <mxGeometry x="11" y="6.5" width="270" height="40" as="geometry" />
        </mxCell>
        <mxCell id="RJMTiFoajsU4DwhKSX9r-256" style="shape=tableRow;horizontal=0;swimlaneHead=0;swimlaneBody=0;top=0;left=0;strokeColor=inherit;bottom=0;right=0;dropTarget=0;fontStyle=0;fillColor=none;points=[[0,0.5],[1,0.5]];portConstraint=eastwest;startSize=0;collapsible=0;recursiveResize=0;expand=0;fontSize=24;verticalAlign=middle;align=left;" vertex="1" parent="RJMTiFoajsU4DwhKSX9r-224">
          <mxGeometry y="331" width="1520" height="53" as="geometry" />
        </mxCell>
        <mxCell id="RJMTiFoajsU4DwhKSX9r-257" style="swimlane;swimlaneHead=0;swimlaneBody=0;fontStyle=0;connectable=0;strokeColor=inherit;fillColor=none;startSize=0;collapsible=0;recursiveResize=0;expand=0;fontSize=24;verticalAlign=middle;align=left;" vertex="1" parent="RJMTiFoajsU4DwhKSX9r-256">
          <mxGeometry width="280" height="53" as="geometry">
            <mxRectangle width="280" height="53" as="alternateBounds" />
          </mxGeometry>
        </mxCell>
        <mxCell id="RJMTiFoajsU4DwhKSX9r-258" style="swimlane;swimlaneHead=0;swimlaneBody=0;fontStyle=0;connectable=0;strokeColor=inherit;fillColor=none;startSize=0;collapsible=0;recursiveResize=0;expand=0;fontSize=24;verticalAlign=middle;align=left;" vertex="1" parent="RJMTiFoajsU4DwhKSX9r-256">
          <mxGeometry x="280" width="280" height="53" as="geometry">
            <mxRectangle width="280" height="53" as="alternateBounds" />
          </mxGeometry>
        </mxCell>
        <mxCell id="RJMTiFoajsU4DwhKSX9r-259" value="&lt;span style=&quot;font-size: 24px; line-height: 107%;&quot;&gt;CategoryID&lt;/span&gt;" style="text;html=1;align=left;verticalAlign=middle;resizable=0;points=[];autosize=1;strokeColor=none;fillColor=none;fontSize=24;" vertex="1" parent="RJMTiFoajsU4DwhKSX9r-258">
          <mxGeometry x="24" y="6.5" width="140" height="40" as="geometry" />
        </mxCell>
        <mxCell id="RJMTiFoajsU4DwhKSX9r-260" style="swimlane;swimlaneHead=0;swimlaneBody=0;fontStyle=0;connectable=0;strokeColor=inherit;fillColor=none;startSize=0;collapsible=0;recursiveResize=0;expand=0;fontSize=24;verticalAlign=middle;align=left;" vertex="1" parent="RJMTiFoajsU4DwhKSX9r-256">
          <mxGeometry x="560" width="960" height="53" as="geometry">
            <mxRectangle width="960" height="53" as="alternateBounds" />
          </mxGeometry>
        </mxCell>
        <mxCell id="RJMTiFoajsU4DwhKSX9r-261" value="Ссылка на категорию товара." style="text;html=1;align=left;verticalAlign=middle;resizable=0;points=[];autosize=1;strokeColor=none;fillColor=none;fontSize=24;" vertex="1" parent="RJMTiFoajsU4DwhKSX9r-260">
          <mxGeometry x="11" y="6.5" width="350" height="40" as="geometry" />
        </mxCell>
        <mxCell id="RJMTiFoajsU4DwhKSX9r-262" style="shape=tableRow;horizontal=0;swimlaneHead=0;swimlaneBody=0;top=0;left=0;strokeColor=inherit;bottom=0;right=0;dropTarget=0;fontStyle=0;fillColor=none;points=[[0,0.5],[1,0.5]];portConstraint=eastwest;startSize=0;collapsible=0;recursiveResize=0;expand=0;fontSize=24;verticalAlign=middle;align=left;" vertex="1" parent="RJMTiFoajsU4DwhKSX9r-224">
          <mxGeometry y="384" width="1520" height="53" as="geometry" />
        </mxCell>
        <mxCell id="RJMTiFoajsU4DwhKSX9r-263" style="swimlane;swimlaneHead=0;swimlaneBody=0;fontStyle=0;connectable=0;strokeColor=inherit;fillColor=none;startSize=0;collapsible=0;recursiveResize=0;expand=0;fontSize=24;verticalAlign=middle;align=left;" vertex="1" parent="RJMTiFoajsU4DwhKSX9r-262">
          <mxGeometry width="280" height="53" as="geometry">
            <mxRectangle width="280" height="53" as="alternateBounds" />
          </mxGeometry>
        </mxCell>
        <mxCell id="RJMTiFoajsU4DwhKSX9r-264" style="swimlane;swimlaneHead=0;swimlaneBody=0;fontStyle=0;connectable=0;strokeColor=inherit;fillColor=none;startSize=0;collapsible=0;recursiveResize=0;expand=0;fontSize=24;verticalAlign=middle;align=left;" vertex="1" parent="RJMTiFoajsU4DwhKSX9r-262">
          <mxGeometry x="280" width="280" height="53" as="geometry">
            <mxRectangle width="280" height="53" as="alternateBounds" />
          </mxGeometry>
        </mxCell>
        <mxCell id="RJMTiFoajsU4DwhKSX9r-265" value="IsAvailableForAddition" style="text;html=1;align=left;verticalAlign=middle;resizable=0;points=[];autosize=1;strokeColor=none;fillColor=none;fontSize=24;" vertex="1" parent="RJMTiFoajsU4DwhKSX9r-264">
          <mxGeometry x="24" y="6.5" width="260" height="40" as="geometry" />
        </mxCell>
        <mxCell id="RJMTiFoajsU4DwhKSX9r-266" style="swimlane;swimlaneHead=0;swimlaneBody=0;fontStyle=0;connectable=0;strokeColor=inherit;fillColor=none;startSize=0;collapsible=0;recursiveResize=0;expand=0;fontSize=24;verticalAlign=middle;align=left;" vertex="1" parent="RJMTiFoajsU4DwhKSX9r-262">
          <mxGeometry x="560" width="960" height="53" as="geometry">
            <mxRectangle width="960" height="53" as="alternateBounds" />
          </mxGeometry>
        </mxCell>
        <mxCell id="RJMTiFoajsU4DwhKSX9r-267" value="Дата и время добавления товара к заказу." style="text;html=1;align=left;verticalAlign=middle;resizable=0;points=[];autosize=1;strokeColor=none;fillColor=none;fontSize=24;" vertex="1" parent="RJMTiFoajsU4DwhKSX9r-266">
          <mxGeometry x="11" width="490" height="40" as="geometry" />
        </mxCell>
        <mxCell id="RJMTiFoajsU4DwhKSX9r-268" style="shape=tableRow;horizontal=0;swimlaneHead=0;swimlaneBody=0;top=0;left=0;strokeColor=inherit;bottom=0;right=0;dropTarget=0;fontStyle=0;fillColor=none;points=[[0,0.5],[1,0.5]];portConstraint=eastwest;startSize=0;collapsible=0;recursiveResize=0;expand=0;fontSize=17;" vertex="1" parent="RJMTiFoajsU4DwhKSX9r-224">
          <mxGeometry y="437" width="1520" height="106" as="geometry" />
        </mxCell>
        <mxCell id="RJMTiFoajsU4DwhKSX9r-269" style="swimlane;swimlaneHead=0;swimlaneBody=0;fontStyle=0;connectable=0;strokeColor=inherit;fillColor=none;startSize=0;collapsible=0;recursiveResize=0;expand=0;fontSize=17;" vertex="1" parent="RJMTiFoajsU4DwhKSX9r-268">
          <mxGeometry width="280" height="106" as="geometry">
            <mxRectangle width="280" height="106" as="alternateBounds" />
          </mxGeometry>
        </mxCell>
        <mxCell id="RJMTiFoajsU4DwhKSX9r-270" style="swimlane;swimlaneHead=0;swimlaneBody=0;fontStyle=0;connectable=0;strokeColor=inherit;fillColor=none;startSize=0;collapsible=0;recursiveResize=0;expand=0;fontSize=17;" vertex="1" parent="RJMTiFoajsU4DwhKSX9r-268">
          <mxGeometry x="280" width="280" height="106" as="geometry">
            <mxRectangle width="280" height="106" as="alternateBounds" />
          </mxGeometry>
        </mxCell>
        <mxCell id="RJMTiFoajsU4DwhKSX9r-271" value="IsAdditionalItem" style="text;html=1;align=left;verticalAlign=middle;resizable=0;points=[];autosize=1;strokeColor=none;fillColor=none;fontSize=24;" vertex="1" parent="RJMTiFoajsU4DwhKSX9r-270">
          <mxGeometry x="23" y="26" width="190" height="40" as="geometry" />
        </mxCell>
        <mxCell id="RJMTiFoajsU4DwhKSX9r-272" style="swimlane;swimlaneHead=0;swimlaneBody=0;fontStyle=0;connectable=0;strokeColor=inherit;fillColor=none;startSize=0;collapsible=0;recursiveResize=0;expand=0;fontSize=17;" vertex="1" parent="RJMTiFoajsU4DwhKSX9r-268">
          <mxGeometry x="560" width="960" height="106" as="geometry">
            <mxRectangle width="960" height="106" as="alternateBounds" />
          </mxGeometry>
        </mxCell>
        <mxCell id="RJMTiFoajsU4DwhKSX9r-273" value="Булево поле, указывающее, доступен ли товар для добавления&amp;nbsp;&lt;div&gt;к уже оплаченному заказу.&lt;/div&gt;" style="text;html=1;align=left;verticalAlign=middle;resizable=0;points=[];autosize=1;strokeColor=none;fillColor=none;fontSize=24;" vertex="1" parent="RJMTiFoajsU4DwhKSX9r-272">
          <mxGeometry x="11" y="16" width="740" height="70" as="geometry" />
        </mxCell>
        <mxCell id="RJMTiFoajsU4DwhKSX9r-274" value="Объект - Корзина" style="text;strokeColor=none;fillColor=none;spacingLeft=4;spacingRight=4;overflow=hidden;rotatable=0;points=[[0,0.5],[1,0.5]];portConstraint=eastwest;fontSize=36;whiteSpace=wrap;html=1;fontStyle=1" vertex="1" parent="1">
          <mxGeometry x="-1594" y="2040" width="710" height="70" as="geometry" />
        </mxCell>
        <mxCell id="RJMTiFoajsU4DwhKSX9r-275" value="" style="shape=table;childLayout=tableLayout;startSize=0;fillColor=none;collapsible=0;recursiveResize=0;expand=0;fontSize=17;" vertex="1" parent="1">
          <mxGeometry x="-1594" y="2090" width="1520" height="384" as="geometry" />
        </mxCell>
        <mxCell id="RJMTiFoajsU4DwhKSX9r-276" value="" style="shape=tableRow;horizontal=0;swimlaneHead=0;swimlaneBody=0;top=0;left=0;strokeColor=inherit;bottom=0;right=0;dropTarget=0;fontStyle=0;fillColor=none;points=[[0,0.5],[1,0.5]];portConstraint=eastwest;startSize=0;collapsible=0;recursiveResize=0;expand=0;fontSize=17;verticalAlign=middle;align=left;" vertex="1" parent="RJMTiFoajsU4DwhKSX9r-275">
          <mxGeometry width="1520" height="119" as="geometry" />
        </mxCell>
        <mxCell id="RJMTiFoajsU4DwhKSX9r-277" value="Родительская сущность" style="swimlane;swimlaneHead=0;swimlaneBody=0;fontStyle=0;strokeColor=inherit;connectable=0;fillColor=none;startSize=70;collapsible=0;recursiveResize=0;expand=0;fontSize=24;verticalAlign=middle;align=center;" vertex="1" parent="RJMTiFoajsU4DwhKSX9r-276">
          <mxGeometry width="278" height="119" as="geometry">
            <mxRectangle width="278" height="119" as="alternateBounds" />
          </mxGeometry>
        </mxCell>
        <mxCell id="RJMTiFoajsU4DwhKSX9r-278" value="Корзина" style="text;html=1;align=left;verticalAlign=middle;whiteSpace=wrap;rounded=0;fontSize=24;" vertex="1" parent="RJMTiFoajsU4DwhKSX9r-277">
          <mxGeometry x="18" y="75" width="192" height="30" as="geometry" />
        </mxCell>
        <mxCell id="RJMTiFoajsU4DwhKSX9r-279" value="Атрибут" style="swimlane;swimlaneHead=0;swimlaneBody=0;fontStyle=0;strokeColor=inherit;connectable=0;fillColor=none;startSize=70;collapsible=0;recursiveResize=0;expand=0;fontSize=24;verticalAlign=middle;align=center;" vertex="1" parent="RJMTiFoajsU4DwhKSX9r-276">
          <mxGeometry x="278" width="282" height="119" as="geometry">
            <mxRectangle width="282" height="119" as="alternateBounds" />
          </mxGeometry>
        </mxCell>
        <mxCell id="RJMTiFoajsU4DwhKSX9r-280" value="&lt;font style=&quot;font-size: 24px;&quot;&gt;----&lt;/font&gt;" style="text;html=1;align=center;verticalAlign=middle;resizable=0;points=[];autosize=1;strokeColor=none;fillColor=none;" vertex="1" parent="RJMTiFoajsU4DwhKSX9r-279">
          <mxGeometry x="20" y="75" width="60" height="40" as="geometry" />
        </mxCell>
        <mxCell id="RJMTiFoajsU4DwhKSX9r-281" value="Описание" style="swimlane;swimlaneHead=0;swimlaneBody=0;fontStyle=0;strokeColor=inherit;connectable=0;fillColor=none;startSize=70;collapsible=0;recursiveResize=0;expand=0;fontSize=24;verticalAlign=middle;align=center;" vertex="1" parent="RJMTiFoajsU4DwhKSX9r-276">
          <mxGeometry x="560" width="960" height="119" as="geometry">
            <mxRectangle width="960" height="119" as="alternateBounds" />
          </mxGeometry>
        </mxCell>
        <mxCell id="RJMTiFoajsU4DwhKSX9r-282" value="Объект корзина." style="text;html=1;align=left;verticalAlign=middle;whiteSpace=wrap;rounded=0;fontSize=24;" vertex="1" parent="RJMTiFoajsU4DwhKSX9r-281">
          <mxGeometry x="7" y="80" width="343" height="30" as="geometry" />
        </mxCell>
        <mxCell id="RJMTiFoajsU4DwhKSX9r-283" style="shape=tableRow;horizontal=0;swimlaneHead=0;swimlaneBody=0;top=0;left=0;strokeColor=inherit;bottom=0;right=0;dropTarget=0;fontStyle=0;fillColor=none;points=[[0,0.5],[1,0.5]];portConstraint=eastwest;startSize=0;collapsible=0;recursiveResize=0;expand=0;fontSize=24;verticalAlign=middle;align=left;" vertex="1" parent="RJMTiFoajsU4DwhKSX9r-275">
          <mxGeometry y="119" width="1520" height="53" as="geometry" />
        </mxCell>
        <mxCell id="RJMTiFoajsU4DwhKSX9r-284" style="swimlane;swimlaneHead=0;swimlaneBody=0;fontStyle=0;connectable=0;strokeColor=inherit;fillColor=none;startSize=0;collapsible=0;recursiveResize=0;expand=0;fontSize=24;verticalAlign=middle;align=left;" vertex="1" parent="RJMTiFoajsU4DwhKSX9r-283">
          <mxGeometry width="278" height="53" as="geometry">
            <mxRectangle width="278" height="53" as="alternateBounds" />
          </mxGeometry>
        </mxCell>
        <mxCell id="RJMTiFoajsU4DwhKSX9r-285" style="swimlane;swimlaneHead=0;swimlaneBody=0;fontStyle=0;connectable=0;strokeColor=inherit;fillColor=none;startSize=0;collapsible=0;recursiveResize=0;expand=0;fontSize=24;verticalAlign=middle;align=left;" vertex="1" parent="RJMTiFoajsU4DwhKSX9r-283">
          <mxGeometry x="278" width="282" height="53" as="geometry">
            <mxRectangle width="282" height="53" as="alternateBounds" />
          </mxGeometry>
        </mxCell>
        <mxCell id="RJMTiFoajsU4DwhKSX9r-286" value="&lt;span style=&quot;font-weight: normal;&quot;&gt;CartID&lt;/span&gt;" style="text;html=1;align=left;verticalAlign=middle;resizable=0;points=[];autosize=1;strokeColor=none;fillColor=none;fontSize=24;fontStyle=1" vertex="1" parent="RJMTiFoajsU4DwhKSX9r-285">
          <mxGeometry x="23" y="6.5" width="90" height="40" as="geometry" />
        </mxCell>
        <mxCell id="RJMTiFoajsU4DwhKSX9r-287" style="swimlane;swimlaneHead=0;swimlaneBody=0;fontStyle=0;connectable=0;strokeColor=inherit;fillColor=none;startSize=0;collapsible=0;recursiveResize=0;expand=0;fontSize=24;verticalAlign=middle;align=left;" vertex="1" parent="RJMTiFoajsU4DwhKSX9r-283">
          <mxGeometry x="560" width="960" height="53" as="geometry">
            <mxRectangle width="960" height="53" as="alternateBounds" />
          </mxGeometry>
        </mxCell>
        <mxCell id="RJMTiFoajsU4DwhKSX9r-288" value="" style="shape=tableRow;horizontal=0;swimlaneHead=0;swimlaneBody=0;top=0;left=0;strokeColor=inherit;bottom=0;right=0;dropTarget=0;fontStyle=0;fillColor=none;points=[[0,0.5],[1,0.5]];portConstraint=eastwest;startSize=0;collapsible=0;recursiveResize=0;expand=0;fontSize=24;verticalAlign=middle;align=left;" vertex="1" parent="RJMTiFoajsU4DwhKSX9r-275">
          <mxGeometry y="172" width="1520" height="53" as="geometry" />
        </mxCell>
        <mxCell id="RJMTiFoajsU4DwhKSX9r-289" style="swimlane;swimlaneHead=0;swimlaneBody=0;fontStyle=0;connectable=0;strokeColor=inherit;fillColor=none;startSize=0;collapsible=0;recursiveResize=0;expand=0;fontSize=24;verticalAlign=middle;align=left;" vertex="1" parent="RJMTiFoajsU4DwhKSX9r-288">
          <mxGeometry width="278" height="53" as="geometry">
            <mxRectangle width="278" height="53" as="alternateBounds" />
          </mxGeometry>
        </mxCell>
        <mxCell id="RJMTiFoajsU4DwhKSX9r-290" value="" style="swimlane;swimlaneHead=0;swimlaneBody=0;fontStyle=0;connectable=0;strokeColor=inherit;fillColor=none;startSize=0;collapsible=0;recursiveResize=0;expand=0;fontSize=24;verticalAlign=middle;align=left;" vertex="1" parent="RJMTiFoajsU4DwhKSX9r-288">
          <mxGeometry x="278" width="282" height="53" as="geometry">
            <mxRectangle width="282" height="53" as="alternateBounds" />
          </mxGeometry>
        </mxCell>
        <mxCell id="RJMTiFoajsU4DwhKSX9r-291" value="&lt;span style=&quot;font-size: 24px; line-height: 107%;&quot;&gt;UserID&lt;/span&gt;" style="text;html=1;align=left;verticalAlign=middle;resizable=0;points=[];autosize=1;strokeColor=none;fillColor=none;fontSize=24;" vertex="1" parent="RJMTiFoajsU4DwhKSX9r-290">
          <mxGeometry x="24" y="6" width="100" height="40" as="geometry" />
        </mxCell>
        <mxCell id="RJMTiFoajsU4DwhKSX9r-292" value="" style="swimlane;swimlaneHead=0;swimlaneBody=0;fontStyle=0;connectable=0;strokeColor=inherit;fillColor=none;startSize=0;collapsible=0;recursiveResize=0;expand=0;fontSize=24;verticalAlign=middle;align=left;" vertex="1" parent="RJMTiFoajsU4DwhKSX9r-288">
          <mxGeometry x="560" width="960" height="53" as="geometry">
            <mxRectangle width="960" height="53" as="alternateBounds" />
          </mxGeometry>
        </mxCell>
        <mxCell id="RJMTiFoajsU4DwhKSX9r-293" value="" style="shape=tableRow;horizontal=0;swimlaneHead=0;swimlaneBody=0;top=0;left=0;strokeColor=inherit;bottom=0;right=0;dropTarget=0;fontStyle=0;fillColor=none;points=[[0,0.5],[1,0.5]];portConstraint=eastwest;startSize=0;collapsible=0;recursiveResize=0;expand=0;fontSize=24;verticalAlign=middle;align=left;" vertex="1" parent="RJMTiFoajsU4DwhKSX9r-275">
          <mxGeometry y="225" width="1520" height="53" as="geometry" />
        </mxCell>
        <mxCell id="RJMTiFoajsU4DwhKSX9r-294" style="swimlane;swimlaneHead=0;swimlaneBody=0;fontStyle=0;connectable=0;strokeColor=inherit;fillColor=none;startSize=0;collapsible=0;recursiveResize=0;expand=0;fontSize=24;verticalAlign=middle;align=left;" vertex="1" parent="RJMTiFoajsU4DwhKSX9r-293">
          <mxGeometry width="278" height="53" as="geometry">
            <mxRectangle width="278" height="53" as="alternateBounds" />
          </mxGeometry>
        </mxCell>
        <mxCell id="RJMTiFoajsU4DwhKSX9r-295" value="" style="swimlane;swimlaneHead=0;swimlaneBody=0;fontStyle=0;connectable=0;strokeColor=inherit;fillColor=none;startSize=0;collapsible=0;recursiveResize=0;expand=0;fontSize=24;verticalAlign=middle;align=left;" vertex="1" parent="RJMTiFoajsU4DwhKSX9r-293">
          <mxGeometry x="278" width="282" height="53" as="geometry">
            <mxRectangle width="282" height="53" as="alternateBounds" />
          </mxGeometry>
        </mxCell>
        <mxCell id="RJMTiFoajsU4DwhKSX9r-296" value="&lt;span style=&quot;font-size: 24px; line-height: 107%;&quot;&gt;OrderID&lt;/span&gt;" style="text;html=1;align=left;verticalAlign=middle;resizable=0;points=[];autosize=1;strokeColor=none;fillColor=none;fontSize=24;" vertex="1" parent="RJMTiFoajsU4DwhKSX9r-295">
          <mxGeometry x="24" y="6.5" width="110" height="40" as="geometry" />
        </mxCell>
        <mxCell id="RJMTiFoajsU4DwhKSX9r-297" value="" style="swimlane;swimlaneHead=0;swimlaneBody=0;fontStyle=0;connectable=0;strokeColor=inherit;fillColor=none;startSize=0;collapsible=0;recursiveResize=0;expand=0;fontSize=24;verticalAlign=middle;align=left;" vertex="1" parent="RJMTiFoajsU4DwhKSX9r-293">
          <mxGeometry x="560" width="960" height="53" as="geometry">
            <mxRectangle width="960" height="53" as="alternateBounds" />
          </mxGeometry>
        </mxCell>
        <mxCell id="RJMTiFoajsU4DwhKSX9r-298" value="&lt;p class=&quot;MsoNormal&quot; style=&quot;font-size: 24px;&quot;&gt; Ссылка на заказ, если добавление товаров происходит к существующему заказу.&lt;/p&gt;" style="text;html=1;align=left;verticalAlign=middle;resizable=0;points=[];autosize=1;strokeColor=none;fillColor=none;fontSize=24;" vertex="1" parent="RJMTiFoajsU4DwhKSX9r-297">
          <mxGeometry x="11" y="-18.5" width="930" height="90" as="geometry" />
        </mxCell>
        <mxCell id="RJMTiFoajsU4DwhKSX9r-299" value="&lt;p class=&quot;MsoNormal&quot; style=&quot;font-size: 24px; line-height: 120%;&quot;&gt;&lt;span style=&quot;line-height: 107%; font-size: 24px;&quot;&gt;Ссылка на пользователя, который использует корзину&lt;/span&gt;&lt;/p&gt;" style="text;html=1;align=left;verticalAlign=middle;resizable=0;points=[];autosize=1;strokeColor=none;fillColor=none;fontSize=24;" vertex="1" parent="RJMTiFoajsU4DwhKSX9r-297">
          <mxGeometry x="11" y="-72" width="630" height="90" as="geometry" />
        </mxCell>
        <mxCell id="RJMTiFoajsU4DwhKSX9r-300" value="&lt;p class=&quot;MsoNormal&quot;&gt;&lt;font style=&quot;font-size: 24px;&quot;&gt;Уникальный идентификатор корзины.&lt;/font&gt;&lt;/p&gt;" style="text;html=1;align=left;verticalAlign=middle;resizable=0;points=[];autosize=1;strokeColor=none;fillColor=none;" vertex="1" parent="RJMTiFoajsU4DwhKSX9r-297">
          <mxGeometry x="11" y="-117" width="440" height="70" as="geometry" />
        </mxCell>
        <mxCell id="RJMTiFoajsU4DwhKSX9r-301" value="" style="shape=tableRow;horizontal=0;swimlaneHead=0;swimlaneBody=0;top=0;left=0;strokeColor=inherit;bottom=0;right=0;dropTarget=0;fontStyle=0;fillColor=none;points=[[0,0.5],[1,0.5]];portConstraint=eastwest;startSize=0;collapsible=0;recursiveResize=0;expand=0;fontSize=24;verticalAlign=middle;align=left;" vertex="1" parent="RJMTiFoajsU4DwhKSX9r-275">
          <mxGeometry y="278" width="1520" height="53" as="geometry" />
        </mxCell>
        <mxCell id="RJMTiFoajsU4DwhKSX9r-302" style="swimlane;swimlaneHead=0;swimlaneBody=0;fontStyle=0;connectable=0;strokeColor=inherit;fillColor=none;startSize=0;collapsible=0;recursiveResize=0;expand=0;fontSize=24;verticalAlign=middle;align=left;" vertex="1" parent="RJMTiFoajsU4DwhKSX9r-301">
          <mxGeometry width="278" height="53" as="geometry">
            <mxRectangle width="278" height="53" as="alternateBounds" />
          </mxGeometry>
        </mxCell>
        <mxCell id="RJMTiFoajsU4DwhKSX9r-303" value="" style="swimlane;swimlaneHead=0;swimlaneBody=0;fontStyle=0;connectable=0;strokeColor=inherit;fillColor=none;startSize=0;collapsible=0;recursiveResize=0;expand=0;fontSize=24;verticalAlign=middle;align=left;" vertex="1" parent="RJMTiFoajsU4DwhKSX9r-301">
          <mxGeometry x="278" width="282" height="53" as="geometry">
            <mxRectangle width="282" height="53" as="alternateBounds" />
          </mxGeometry>
        </mxCell>
        <mxCell id="RJMTiFoajsU4DwhKSX9r-304" value="&lt;span style=&quot;font-size: 24px; line-height: 107%;&quot;&gt;Price&lt;/span&gt;" style="text;html=1;align=left;verticalAlign=middle;resizable=0;points=[];autosize=1;strokeColor=none;fillColor=none;fontSize=24;" vertex="1" parent="RJMTiFoajsU4DwhKSX9r-303">
          <mxGeometry x="24" y="6.5" width="80" height="40" as="geometry" />
        </mxCell>
        <mxCell id="RJMTiFoajsU4DwhKSX9r-305" value="" style="swimlane;swimlaneHead=0;swimlaneBody=0;fontStyle=0;connectable=0;strokeColor=inherit;fillColor=none;startSize=0;collapsible=0;recursiveResize=0;expand=0;fontSize=24;verticalAlign=middle;align=left;" vertex="1" parent="RJMTiFoajsU4DwhKSX9r-301">
          <mxGeometry x="560" width="960" height="53" as="geometry">
            <mxRectangle width="960" height="53" as="alternateBounds" />
          </mxGeometry>
        </mxCell>
        <mxCell id="RJMTiFoajsU4DwhKSX9r-306" value="Текущая цена товара." style="text;html=1;align=left;verticalAlign=middle;resizable=0;points=[];autosize=1;strokeColor=none;fillColor=none;fontSize=24;" vertex="1" parent="RJMTiFoajsU4DwhKSX9r-305">
          <mxGeometry x="11" y="6.5" width="270" height="40" as="geometry" />
        </mxCell>
        <mxCell id="RJMTiFoajsU4DwhKSX9r-307" style="shape=tableRow;horizontal=0;swimlaneHead=0;swimlaneBody=0;top=0;left=0;strokeColor=inherit;bottom=0;right=0;dropTarget=0;fontStyle=0;fillColor=none;points=[[0,0.5],[1,0.5]];portConstraint=eastwest;startSize=0;collapsible=0;recursiveResize=0;expand=0;fontSize=24;verticalAlign=middle;align=left;" vertex="1" parent="RJMTiFoajsU4DwhKSX9r-275">
          <mxGeometry y="331" width="1520" height="53" as="geometry" />
        </mxCell>
        <mxCell id="RJMTiFoajsU4DwhKSX9r-308" style="swimlane;swimlaneHead=0;swimlaneBody=0;fontStyle=0;connectable=0;strokeColor=inherit;fillColor=none;startSize=0;collapsible=0;recursiveResize=0;expand=0;fontSize=24;verticalAlign=middle;align=left;" vertex="1" parent="RJMTiFoajsU4DwhKSX9r-307">
          <mxGeometry width="278" height="53" as="geometry">
            <mxRectangle width="278" height="53" as="alternateBounds" />
          </mxGeometry>
        </mxCell>
        <mxCell id="RJMTiFoajsU4DwhKSX9r-309" style="swimlane;swimlaneHead=0;swimlaneBody=0;fontStyle=0;connectable=0;strokeColor=inherit;fillColor=none;startSize=0;collapsible=0;recursiveResize=0;expand=0;fontSize=24;verticalAlign=middle;align=left;" vertex="1" parent="RJMTiFoajsU4DwhKSX9r-307">
          <mxGeometry x="278" width="282" height="53" as="geometry">
            <mxRectangle width="282" height="53" as="alternateBounds" />
          </mxGeometry>
        </mxCell>
        <mxCell id="RJMTiFoajsU4DwhKSX9r-310" value="Items" style="text;html=1;align=left;verticalAlign=middle;resizable=0;points=[];autosize=1;strokeColor=none;fillColor=none;fontSize=24;" vertex="1" parent="RJMTiFoajsU4DwhKSX9r-309">
          <mxGeometry x="24" y="6.5" width="80" height="40" as="geometry" />
        </mxCell>
        <mxCell id="RJMTiFoajsU4DwhKSX9r-311" style="swimlane;swimlaneHead=0;swimlaneBody=0;fontStyle=0;connectable=0;strokeColor=inherit;fillColor=none;startSize=0;collapsible=0;recursiveResize=0;expand=0;fontSize=24;verticalAlign=middle;align=left;" vertex="1" parent="RJMTiFoajsU4DwhKSX9r-307">
          <mxGeometry x="560" width="960" height="53" as="geometry">
            <mxRectangle width="960" height="53" as="alternateBounds" />
          </mxGeometry>
        </mxCell>
        <mxCell id="RJMTiFoajsU4DwhKSX9r-312" value="Список товаров в корзине." style="text;html=1;align=left;verticalAlign=middle;resizable=0;points=[];autosize=1;strokeColor=none;fillColor=none;fontSize=24;" vertex="1" parent="RJMTiFoajsU4DwhKSX9r-311">
          <mxGeometry x="11" y="6.5" width="320" height="40" as="geometry" />
        </mxCell>
        <mxCell id="RJMTiFoajsU4DwhKSX9r-376" value="Объект - Каталог" style="text;strokeColor=none;fillColor=none;spacingLeft=4;spacingRight=4;overflow=hidden;rotatable=0;points=[[0,0.5],[1,0.5]];portConstraint=eastwest;fontSize=36;whiteSpace=wrap;html=1;fontStyle=1" vertex="1" parent="1">
          <mxGeometry x="-1596" y="1090" width="710" height="70" as="geometry" />
        </mxCell>
        <mxCell id="RJMTiFoajsU4DwhKSX9r-377" value="" style="shape=table;childLayout=tableLayout;startSize=0;fillColor=none;collapsible=0;recursiveResize=0;expand=0;fontSize=17;" vertex="1" parent="1">
          <mxGeometry x="-1596" y="1140" width="1520" height="225" as="geometry" />
        </mxCell>
        <mxCell id="RJMTiFoajsU4DwhKSX9r-378" value="" style="shape=tableRow;horizontal=0;swimlaneHead=0;swimlaneBody=0;top=0;left=0;strokeColor=inherit;bottom=0;right=0;dropTarget=0;fontStyle=0;fillColor=none;points=[[0,0.5],[1,0.5]];portConstraint=eastwest;startSize=0;collapsible=0;recursiveResize=0;expand=0;fontSize=17;verticalAlign=middle;align=left;" vertex="1" parent="RJMTiFoajsU4DwhKSX9r-377">
          <mxGeometry width="1520" height="119" as="geometry" />
        </mxCell>
        <mxCell id="RJMTiFoajsU4DwhKSX9r-379" value="Родительская сущность" style="swimlane;swimlaneHead=0;swimlaneBody=0;fontStyle=0;strokeColor=inherit;connectable=0;fillColor=none;startSize=70;collapsible=0;recursiveResize=0;expand=0;fontSize=24;verticalAlign=middle;align=center;" vertex="1" parent="RJMTiFoajsU4DwhKSX9r-378">
          <mxGeometry width="280" height="119" as="geometry">
            <mxRectangle width="280" height="119" as="alternateBounds" />
          </mxGeometry>
        </mxCell>
        <mxCell id="RJMTiFoajsU4DwhKSX9r-380" value="Каталог" style="text;html=1;align=left;verticalAlign=middle;whiteSpace=wrap;rounded=0;fontSize=24;" vertex="1" parent="RJMTiFoajsU4DwhKSX9r-379">
          <mxGeometry x="18" y="75" width="192" height="30" as="geometry" />
        </mxCell>
        <mxCell id="RJMTiFoajsU4DwhKSX9r-381" value="Атрибут" style="swimlane;swimlaneHead=0;swimlaneBody=0;fontStyle=0;strokeColor=inherit;connectable=0;fillColor=none;startSize=70;collapsible=0;recursiveResize=0;expand=0;fontSize=24;verticalAlign=middle;align=center;" vertex="1" parent="RJMTiFoajsU4DwhKSX9r-378">
          <mxGeometry x="280" width="280" height="119" as="geometry">
            <mxRectangle width="280" height="119" as="alternateBounds" />
          </mxGeometry>
        </mxCell>
        <mxCell id="RJMTiFoajsU4DwhKSX9r-382" value="&lt;font style=&quot;font-size: 24px;&quot;&gt;----&lt;/font&gt;" style="text;html=1;align=center;verticalAlign=middle;resizable=0;points=[];autosize=1;strokeColor=none;fillColor=none;" vertex="1" parent="RJMTiFoajsU4DwhKSX9r-381">
          <mxGeometry x="20" y="75" width="60" height="40" as="geometry" />
        </mxCell>
        <mxCell id="RJMTiFoajsU4DwhKSX9r-383" value="Описание" style="swimlane;swimlaneHead=0;swimlaneBody=0;fontStyle=0;strokeColor=inherit;connectable=0;fillColor=none;startSize=70;collapsible=0;recursiveResize=0;expand=0;fontSize=24;verticalAlign=middle;align=center;" vertex="1" parent="RJMTiFoajsU4DwhKSX9r-378">
          <mxGeometry x="560" width="960" height="119" as="geometry">
            <mxRectangle width="960" height="119" as="alternateBounds" />
          </mxGeometry>
        </mxCell>
        <mxCell id="RJMTiFoajsU4DwhKSX9r-384" value="Объект каталог." style="text;html=1;align=left;verticalAlign=middle;whiteSpace=wrap;rounded=0;fontSize=24;" vertex="1" parent="RJMTiFoajsU4DwhKSX9r-383">
          <mxGeometry x="7" y="80" width="343" height="30" as="geometry" />
        </mxCell>
        <mxCell id="RJMTiFoajsU4DwhKSX9r-385" style="shape=tableRow;horizontal=0;swimlaneHead=0;swimlaneBody=0;top=0;left=0;strokeColor=inherit;bottom=0;right=0;dropTarget=0;fontStyle=0;fillColor=none;points=[[0,0.5],[1,0.5]];portConstraint=eastwest;startSize=0;collapsible=0;recursiveResize=0;expand=0;fontSize=24;verticalAlign=middle;align=left;" vertex="1" parent="RJMTiFoajsU4DwhKSX9r-377">
          <mxGeometry y="119" width="1520" height="53" as="geometry" />
        </mxCell>
        <mxCell id="RJMTiFoajsU4DwhKSX9r-386" style="swimlane;swimlaneHead=0;swimlaneBody=0;fontStyle=0;connectable=0;strokeColor=inherit;fillColor=none;startSize=0;collapsible=0;recursiveResize=0;expand=0;fontSize=24;verticalAlign=middle;align=left;" vertex="1" parent="RJMTiFoajsU4DwhKSX9r-385">
          <mxGeometry width="280" height="53" as="geometry">
            <mxRectangle width="280" height="53" as="alternateBounds" />
          </mxGeometry>
        </mxCell>
        <mxCell id="RJMTiFoajsU4DwhKSX9r-387" style="swimlane;swimlaneHead=0;swimlaneBody=0;fontStyle=0;connectable=0;strokeColor=inherit;fillColor=none;startSize=0;collapsible=0;recursiveResize=0;expand=0;fontSize=24;verticalAlign=middle;align=left;" vertex="1" parent="RJMTiFoajsU4DwhKSX9r-385">
          <mxGeometry x="280" width="280" height="53" as="geometry">
            <mxRectangle width="280" height="53" as="alternateBounds" />
          </mxGeometry>
        </mxCell>
        <mxCell id="RJMTiFoajsU4DwhKSX9r-388" value="&lt;span style=&quot;font-weight: normal;&quot;&gt;CatalogID&lt;/span&gt;" style="text;html=1;align=left;verticalAlign=middle;resizable=0;points=[];autosize=1;strokeColor=none;fillColor=none;fontSize=24;fontStyle=1" vertex="1" parent="RJMTiFoajsU4DwhKSX9r-387">
          <mxGeometry x="23" y="6.5" width="130" height="40" as="geometry" />
        </mxCell>
        <mxCell id="RJMTiFoajsU4DwhKSX9r-389" style="swimlane;swimlaneHead=0;swimlaneBody=0;fontStyle=0;connectable=0;strokeColor=inherit;fillColor=none;startSize=0;collapsible=0;recursiveResize=0;expand=0;fontSize=24;verticalAlign=middle;align=left;" vertex="1" parent="RJMTiFoajsU4DwhKSX9r-385">
          <mxGeometry x="560" width="960" height="53" as="geometry">
            <mxRectangle width="960" height="53" as="alternateBounds" />
          </mxGeometry>
        </mxCell>
        <mxCell id="RJMTiFoajsU4DwhKSX9r-402" value="&lt;p class=&quot;MsoNormal&quot;&gt;&lt;font style=&quot;font-size: 24px;&quot;&gt;Уникальный идентификатор каталога.&lt;/font&gt;&lt;/p&gt;" style="text;html=1;align=left;verticalAlign=middle;resizable=0;points=[];autosize=1;strokeColor=none;fillColor=none;" vertex="1" parent="RJMTiFoajsU4DwhKSX9r-389">
          <mxGeometry x="3" y="-9" width="450" height="70" as="geometry" />
        </mxCell>
        <mxCell id="RJMTiFoajsU4DwhKSX9r-390" value="" style="shape=tableRow;horizontal=0;swimlaneHead=0;swimlaneBody=0;top=0;left=0;strokeColor=inherit;bottom=0;right=0;dropTarget=0;fontStyle=0;fillColor=none;points=[[0,0.5],[1,0.5]];portConstraint=eastwest;startSize=0;collapsible=0;recursiveResize=0;expand=0;fontSize=24;verticalAlign=middle;align=left;" vertex="1" parent="RJMTiFoajsU4DwhKSX9r-377">
          <mxGeometry y="172" width="1520" height="53" as="geometry" />
        </mxCell>
        <mxCell id="RJMTiFoajsU4DwhKSX9r-391" style="swimlane;swimlaneHead=0;swimlaneBody=0;fontStyle=0;connectable=0;strokeColor=inherit;fillColor=none;startSize=0;collapsible=0;recursiveResize=0;expand=0;fontSize=24;verticalAlign=middle;align=left;" vertex="1" parent="RJMTiFoajsU4DwhKSX9r-390">
          <mxGeometry width="280" height="53" as="geometry">
            <mxRectangle width="280" height="53" as="alternateBounds" />
          </mxGeometry>
        </mxCell>
        <mxCell id="RJMTiFoajsU4DwhKSX9r-392" value="" style="swimlane;swimlaneHead=0;swimlaneBody=0;fontStyle=0;connectable=0;strokeColor=inherit;fillColor=none;startSize=0;collapsible=0;recursiveResize=0;expand=0;fontSize=24;verticalAlign=middle;align=left;" vertex="1" parent="RJMTiFoajsU4DwhKSX9r-390">
          <mxGeometry x="280" width="280" height="53" as="geometry">
            <mxRectangle width="280" height="53" as="alternateBounds" />
          </mxGeometry>
        </mxCell>
        <mxCell id="RJMTiFoajsU4DwhKSX9r-393" value="Name" style="text;html=1;align=left;verticalAlign=middle;resizable=0;points=[];autosize=1;strokeColor=none;fillColor=none;fontSize=24;" vertex="1" parent="RJMTiFoajsU4DwhKSX9r-392">
          <mxGeometry x="24" y="6" width="90" height="40" as="geometry" />
        </mxCell>
        <mxCell id="RJMTiFoajsU4DwhKSX9r-394" value="" style="swimlane;swimlaneHead=0;swimlaneBody=0;fontStyle=0;connectable=0;strokeColor=inherit;fillColor=none;startSize=0;collapsible=0;recursiveResize=0;expand=0;fontSize=24;verticalAlign=middle;align=left;" vertex="1" parent="RJMTiFoajsU4DwhKSX9r-390">
          <mxGeometry x="560" width="960" height="53" as="geometry">
            <mxRectangle width="960" height="53" as="alternateBounds" />
          </mxGeometry>
        </mxCell>
        <mxCell id="RJMTiFoajsU4DwhKSX9r-401" value="&lt;p class=&quot;MsoNormal&quot; style=&quot;font-size: 24px; line-height: 120%;&quot;&gt;&lt;span style=&quot;line-height: 107%; font-size: 24px;&quot;&gt;Название раздела каталога.&lt;/span&gt;&lt;/p&gt;" style="text;html=1;align=left;verticalAlign=middle;resizable=0;points=[];autosize=1;strokeColor=none;fillColor=none;fontSize=24;" vertex="1" parent="RJMTiFoajsU4DwhKSX9r-394">
          <mxGeometry x="10" y="-19" width="340" height="90" as="geometry" />
        </mxCell>
        <mxCell id="RJMTiFoajsU4DwhKSX9r-420" value="&lt;b&gt;Объект - Уведомление&lt;/b&gt;" style="text;strokeColor=none;fillColor=none;spacingLeft=4;spacingRight=4;overflow=hidden;rotatable=0;points=[[0,0.5],[1,0.5]];portConstraint=eastwest;fontSize=36;whiteSpace=wrap;html=1;" vertex="1" parent="1">
          <mxGeometry x="-1604" y="540" width="710" height="70" as="geometry" />
        </mxCell>
        <mxCell id="RJMTiFoajsU4DwhKSX9r-421" value="" style="shape=table;childLayout=tableLayout;startSize=0;fillColor=none;collapsible=0;recursiveResize=0;expand=0;fontSize=17;" vertex="1" parent="1">
          <mxGeometry x="-1600" y="590" width="1520" height="385" as="geometry" />
        </mxCell>
        <mxCell id="RJMTiFoajsU4DwhKSX9r-422" value="" style="shape=tableRow;horizontal=0;swimlaneHead=0;swimlaneBody=0;top=0;left=0;strokeColor=inherit;bottom=0;right=0;dropTarget=0;fontStyle=0;fillColor=none;points=[[0,0.5],[1,0.5]];portConstraint=eastwest;startSize=0;collapsible=0;recursiveResize=0;expand=0;fontSize=17;verticalAlign=middle;align=left;" vertex="1" parent="RJMTiFoajsU4DwhKSX9r-421">
          <mxGeometry width="1520" height="120" as="geometry" />
        </mxCell>
        <mxCell id="RJMTiFoajsU4DwhKSX9r-423" value="Родительская сущность" style="swimlane;swimlaneHead=0;swimlaneBody=0;fontStyle=1;strokeColor=inherit;connectable=0;fillColor=none;startSize=70;collapsible=0;recursiveResize=0;expand=0;fontSize=24;verticalAlign=middle;align=center;" vertex="1" parent="RJMTiFoajsU4DwhKSX9r-422">
          <mxGeometry width="280" height="120" as="geometry">
            <mxRectangle width="280" height="120" as="alternateBounds" />
          </mxGeometry>
        </mxCell>
        <mxCell id="RJMTiFoajsU4DwhKSX9r-424" value="Уведомление" style="text;html=1;align=left;verticalAlign=middle;whiteSpace=wrap;rounded=0;fontSize=24;fontStyle=0" vertex="1" parent="RJMTiFoajsU4DwhKSX9r-423">
          <mxGeometry x="18" y="75" width="192" height="30" as="geometry" />
        </mxCell>
        <mxCell id="RJMTiFoajsU4DwhKSX9r-425" value="Атрибут" style="swimlane;swimlaneHead=0;swimlaneBody=0;fontStyle=1;strokeColor=inherit;connectable=0;fillColor=none;startSize=70;collapsible=0;recursiveResize=0;expand=0;fontSize=24;verticalAlign=middle;align=center;" vertex="1" parent="RJMTiFoajsU4DwhKSX9r-422">
          <mxGeometry x="280" width="280" height="120" as="geometry">
            <mxRectangle width="280" height="120" as="alternateBounds" />
          </mxGeometry>
        </mxCell>
        <mxCell id="RJMTiFoajsU4DwhKSX9r-426" value="&lt;font style=&quot;font-size: 24px;&quot;&gt;----&lt;/font&gt;" style="text;html=1;align=center;verticalAlign=middle;resizable=0;points=[];autosize=1;strokeColor=none;fillColor=none;" vertex="1" parent="RJMTiFoajsU4DwhKSX9r-425">
          <mxGeometry x="20" y="75" width="60" height="40" as="geometry" />
        </mxCell>
        <mxCell id="RJMTiFoajsU4DwhKSX9r-427" value="Описание" style="swimlane;swimlaneHead=0;swimlaneBody=0;fontStyle=1;strokeColor=inherit;connectable=0;fillColor=none;startSize=70;collapsible=0;recursiveResize=0;expand=0;fontSize=24;verticalAlign=middle;align=center;" vertex="1" parent="RJMTiFoajsU4DwhKSX9r-422">
          <mxGeometry x="560" width="960" height="120" as="geometry">
            <mxRectangle width="960" height="120" as="alternateBounds" />
          </mxGeometry>
        </mxCell>
        <mxCell id="RJMTiFoajsU4DwhKSX9r-428" value="Объект уведомление." style="text;html=1;align=left;verticalAlign=middle;whiteSpace=wrap;rounded=0;fontSize=24;" vertex="1" parent="RJMTiFoajsU4DwhKSX9r-427">
          <mxGeometry x="7" y="80" width="343" height="30" as="geometry" />
        </mxCell>
        <mxCell id="RJMTiFoajsU4DwhKSX9r-429" style="shape=tableRow;horizontal=0;swimlaneHead=0;swimlaneBody=0;top=0;left=0;strokeColor=inherit;bottom=0;right=0;dropTarget=0;fontStyle=0;fillColor=none;points=[[0,0.5],[1,0.5]];portConstraint=eastwest;startSize=0;collapsible=0;recursiveResize=0;expand=0;fontSize=24;verticalAlign=middle;align=left;" vertex="1" parent="RJMTiFoajsU4DwhKSX9r-421">
          <mxGeometry y="120" width="1520" height="53" as="geometry" />
        </mxCell>
        <mxCell id="RJMTiFoajsU4DwhKSX9r-430" style="swimlane;swimlaneHead=0;swimlaneBody=0;fontStyle=0;connectable=0;strokeColor=inherit;fillColor=none;startSize=0;collapsible=0;recursiveResize=0;expand=0;fontSize=24;verticalAlign=middle;align=left;" vertex="1" parent="RJMTiFoajsU4DwhKSX9r-429">
          <mxGeometry width="280" height="53" as="geometry">
            <mxRectangle width="280" height="53" as="alternateBounds" />
          </mxGeometry>
        </mxCell>
        <mxCell id="RJMTiFoajsU4DwhKSX9r-431" style="swimlane;swimlaneHead=0;swimlaneBody=0;fontStyle=0;connectable=0;strokeColor=inherit;fillColor=none;startSize=0;collapsible=0;recursiveResize=0;expand=0;fontSize=24;verticalAlign=middle;align=left;" vertex="1" parent="RJMTiFoajsU4DwhKSX9r-429">
          <mxGeometry x="280" width="280" height="53" as="geometry">
            <mxRectangle width="280" height="53" as="alternateBounds" />
          </mxGeometry>
        </mxCell>
        <mxCell id="RJMTiFoajsU4DwhKSX9r-432" value="NotificationID" style="text;html=1;align=left;verticalAlign=middle;resizable=0;points=[];autosize=1;strokeColor=none;fillColor=none;fontSize=24;fontStyle=0" vertex="1" parent="RJMTiFoajsU4DwhKSX9r-431">
          <mxGeometry x="23" y="6.5" width="170" height="40" as="geometry" />
        </mxCell>
        <mxCell id="RJMTiFoajsU4DwhKSX9r-433" style="swimlane;swimlaneHead=0;swimlaneBody=0;fontStyle=0;connectable=0;strokeColor=inherit;fillColor=none;startSize=0;collapsible=0;recursiveResize=0;expand=0;fontSize=24;verticalAlign=middle;align=left;" vertex="1" parent="RJMTiFoajsU4DwhKSX9r-429">
          <mxGeometry x="560" width="960" height="53" as="geometry">
            <mxRectangle width="960" height="53" as="alternateBounds" />
          </mxGeometry>
        </mxCell>
        <mxCell id="RJMTiFoajsU4DwhKSX9r-434" value="" style="shape=tableRow;horizontal=0;swimlaneHead=0;swimlaneBody=0;top=0;left=0;strokeColor=inherit;bottom=0;right=0;dropTarget=0;fontStyle=0;fillColor=none;points=[[0,0.5],[1,0.5]];portConstraint=eastwest;startSize=0;collapsible=0;recursiveResize=0;expand=0;fontSize=24;verticalAlign=middle;align=left;" vertex="1" parent="RJMTiFoajsU4DwhKSX9r-421">
          <mxGeometry y="173" width="1520" height="53" as="geometry" />
        </mxCell>
        <mxCell id="RJMTiFoajsU4DwhKSX9r-435" style="swimlane;swimlaneHead=0;swimlaneBody=0;fontStyle=0;connectable=0;strokeColor=inherit;fillColor=none;startSize=0;collapsible=0;recursiveResize=0;expand=0;fontSize=24;verticalAlign=middle;align=left;" vertex="1" parent="RJMTiFoajsU4DwhKSX9r-434">
          <mxGeometry width="280" height="53" as="geometry">
            <mxRectangle width="280" height="53" as="alternateBounds" />
          </mxGeometry>
        </mxCell>
        <mxCell id="RJMTiFoajsU4DwhKSX9r-436" value="" style="swimlane;swimlaneHead=0;swimlaneBody=0;fontStyle=0;connectable=0;strokeColor=inherit;fillColor=none;startSize=0;collapsible=0;recursiveResize=0;expand=0;fontSize=24;verticalAlign=middle;align=left;" vertex="1" parent="RJMTiFoajsU4DwhKSX9r-434">
          <mxGeometry x="280" width="280" height="53" as="geometry">
            <mxRectangle width="280" height="53" as="alternateBounds" />
          </mxGeometry>
        </mxCell>
        <mxCell id="RJMTiFoajsU4DwhKSX9r-437" value="UserID" style="text;html=1;align=left;verticalAlign=middle;resizable=0;points=[];autosize=1;strokeColor=none;fillColor=none;fontSize=24;fontStyle=0" vertex="1" parent="RJMTiFoajsU4DwhKSX9r-436">
          <mxGeometry x="24" y="6" width="100" height="40" as="geometry" />
        </mxCell>
        <mxCell id="RJMTiFoajsU4DwhKSX9r-438" value="" style="swimlane;swimlaneHead=0;swimlaneBody=0;fontStyle=0;connectable=0;strokeColor=inherit;fillColor=none;startSize=0;collapsible=0;recursiveResize=0;expand=0;fontSize=24;verticalAlign=middle;align=left;" vertex="1" parent="RJMTiFoajsU4DwhKSX9r-434">
          <mxGeometry x="560" width="960" height="53" as="geometry">
            <mxRectangle width="960" height="53" as="alternateBounds" />
          </mxGeometry>
        </mxCell>
        <mxCell id="RJMTiFoajsU4DwhKSX9r-439" value="" style="shape=tableRow;horizontal=0;swimlaneHead=0;swimlaneBody=0;top=0;left=0;strokeColor=inherit;bottom=0;right=0;dropTarget=0;fontStyle=0;fillColor=none;points=[[0,0.5],[1,0.5]];portConstraint=eastwest;startSize=0;collapsible=0;recursiveResize=0;expand=0;fontSize=24;verticalAlign=middle;align=left;" vertex="1" parent="RJMTiFoajsU4DwhKSX9r-421">
          <mxGeometry y="226" width="1520" height="53" as="geometry" />
        </mxCell>
        <mxCell id="RJMTiFoajsU4DwhKSX9r-440" style="swimlane;swimlaneHead=0;swimlaneBody=0;fontStyle=0;connectable=0;strokeColor=inherit;fillColor=none;startSize=0;collapsible=0;recursiveResize=0;expand=0;fontSize=24;verticalAlign=middle;align=left;" vertex="1" parent="RJMTiFoajsU4DwhKSX9r-439">
          <mxGeometry width="280" height="53" as="geometry">
            <mxRectangle width="280" height="53" as="alternateBounds" />
          </mxGeometry>
        </mxCell>
        <mxCell id="RJMTiFoajsU4DwhKSX9r-441" value="" style="swimlane;swimlaneHead=0;swimlaneBody=0;fontStyle=0;connectable=0;strokeColor=inherit;fillColor=none;startSize=0;collapsible=0;recursiveResize=0;expand=0;fontSize=24;verticalAlign=middle;align=left;" vertex="1" parent="RJMTiFoajsU4DwhKSX9r-439">
          <mxGeometry x="280" width="280" height="53" as="geometry">
            <mxRectangle width="280" height="53" as="alternateBounds" />
          </mxGeometry>
        </mxCell>
        <mxCell id="RJMTiFoajsU4DwhKSX9r-442" value="&lt;span style=&quot;font-size: 24px; line-height: 107%; font-weight: normal;&quot;&gt;Message&lt;/span&gt;" style="text;html=1;align=left;verticalAlign=middle;resizable=0;points=[];autosize=1;strokeColor=none;fillColor=none;fontSize=24;fontStyle=1" vertex="1" parent="RJMTiFoajsU4DwhKSX9r-441">
          <mxGeometry x="24" y="6.5" width="120" height="40" as="geometry" />
        </mxCell>
        <mxCell id="RJMTiFoajsU4DwhKSX9r-443" value="" style="swimlane;swimlaneHead=0;swimlaneBody=0;fontStyle=0;connectable=0;strokeColor=inherit;fillColor=none;startSize=0;collapsible=0;recursiveResize=0;expand=0;fontSize=24;verticalAlign=middle;align=left;" vertex="1" parent="RJMTiFoajsU4DwhKSX9r-439">
          <mxGeometry x="560" width="960" height="53" as="geometry">
            <mxRectangle width="960" height="53" as="alternateBounds" />
          </mxGeometry>
        </mxCell>
        <mxCell id="RJMTiFoajsU4DwhKSX9r-444" value="&lt;p class=&quot;MsoNormal&quot; style=&quot;font-size: 24px;&quot;&gt;Сообщение уведомления.&lt;/p&gt;" style="text;html=1;align=left;verticalAlign=middle;resizable=0;points=[];autosize=1;strokeColor=none;fillColor=none;fontSize=24;" vertex="1" parent="RJMTiFoajsU4DwhKSX9r-443">
          <mxGeometry x="11" y="-18.5" width="320" height="90" as="geometry" />
        </mxCell>
        <mxCell id="RJMTiFoajsU4DwhKSX9r-445" value="&lt;p class=&quot;MsoNormal&quot; style=&quot;font-size: 24px; line-height: 120%;&quot;&gt;&lt;span style=&quot;line-height: 107%; font-size: 24px;&quot;&gt;&lt;span style=&quot;text-align: center; background-color: initial;&quot;&gt;Уникальный идентификатор пользователя&lt;/span&gt;, которому отправляется уведомление.&lt;/span&gt;&lt;/p&gt;" style="text;html=1;align=left;verticalAlign=middle;resizable=0;points=[];autosize=1;strokeColor=none;fillColor=none;fontSize=24;" vertex="1" parent="RJMTiFoajsU4DwhKSX9r-443">
          <mxGeometry x="11" y="-72" width="930" height="90" as="geometry" />
        </mxCell>
        <mxCell id="RJMTiFoajsU4DwhKSX9r-446" value="&lt;p class=&quot;MsoNormal&quot;&gt;&lt;font style=&quot;font-size: 24px;&quot;&gt;Уникальный идентификатор уведомления.&lt;/font&gt;&lt;/p&gt;" style="text;html=1;align=left;verticalAlign=middle;resizable=0;points=[];autosize=1;strokeColor=none;fillColor=none;" vertex="1" parent="RJMTiFoajsU4DwhKSX9r-443">
          <mxGeometry x="11" y="-117" width="500" height="70" as="geometry" />
        </mxCell>
        <mxCell id="RJMTiFoajsU4DwhKSX9r-447" value="" style="shape=tableRow;horizontal=0;swimlaneHead=0;swimlaneBody=0;top=0;left=0;strokeColor=inherit;bottom=0;right=0;dropTarget=0;fontStyle=0;fillColor=none;points=[[0,0.5],[1,0.5]];portConstraint=eastwest;startSize=0;collapsible=0;recursiveResize=0;expand=0;fontSize=24;verticalAlign=middle;align=left;" vertex="1" parent="RJMTiFoajsU4DwhKSX9r-421">
          <mxGeometry y="279" width="1520" height="53" as="geometry" />
        </mxCell>
        <mxCell id="RJMTiFoajsU4DwhKSX9r-448" style="swimlane;swimlaneHead=0;swimlaneBody=0;fontStyle=0;connectable=0;strokeColor=inherit;fillColor=none;startSize=0;collapsible=0;recursiveResize=0;expand=0;fontSize=24;verticalAlign=middle;align=left;" vertex="1" parent="RJMTiFoajsU4DwhKSX9r-447">
          <mxGeometry width="280" height="53" as="geometry">
            <mxRectangle width="280" height="53" as="alternateBounds" />
          </mxGeometry>
        </mxCell>
        <mxCell id="RJMTiFoajsU4DwhKSX9r-449" value="" style="swimlane;swimlaneHead=0;swimlaneBody=0;fontStyle=0;connectable=0;strokeColor=inherit;fillColor=none;startSize=0;collapsible=0;recursiveResize=0;expand=0;fontSize=24;verticalAlign=middle;align=left;" vertex="1" parent="RJMTiFoajsU4DwhKSX9r-447">
          <mxGeometry x="280" width="280" height="53" as="geometry">
            <mxRectangle width="280" height="53" as="alternateBounds" />
          </mxGeometry>
        </mxCell>
        <mxCell id="RJMTiFoajsU4DwhKSX9r-450" value="Status" style="text;html=1;align=left;verticalAlign=middle;resizable=0;points=[];autosize=1;strokeColor=none;fillColor=none;fontSize=24;" vertex="1" parent="RJMTiFoajsU4DwhKSX9r-449">
          <mxGeometry x="24" y="6.5" width="90" height="40" as="geometry" />
        </mxCell>
        <mxCell id="RJMTiFoajsU4DwhKSX9r-451" value="" style="swimlane;swimlaneHead=0;swimlaneBody=0;fontStyle=0;connectable=0;strokeColor=inherit;fillColor=none;startSize=0;collapsible=0;recursiveResize=0;expand=0;fontSize=24;verticalAlign=middle;align=left;" vertex="1" parent="RJMTiFoajsU4DwhKSX9r-447">
          <mxGeometry x="560" width="960" height="53" as="geometry">
            <mxRectangle width="960" height="53" as="alternateBounds" />
          </mxGeometry>
        </mxCell>
        <mxCell id="RJMTiFoajsU4DwhKSX9r-452" value="Статус: «Прочитано» (нажатие на кнопку &quot;Ок&quot;)." style="text;html=1;align=left;verticalAlign=middle;resizable=0;points=[];autosize=1;strokeColor=none;fillColor=none;fontSize=24;" vertex="1" parent="RJMTiFoajsU4DwhKSX9r-451">
          <mxGeometry x="11" y="6.5" width="550" height="40" as="geometry" />
        </mxCell>
        <mxCell id="RJMTiFoajsU4DwhKSX9r-453" style="shape=tableRow;horizontal=0;swimlaneHead=0;swimlaneBody=0;top=0;left=0;strokeColor=inherit;bottom=0;right=0;dropTarget=0;fontStyle=0;fillColor=none;points=[[0,0.5],[1,0.5]];portConstraint=eastwest;startSize=0;collapsible=0;recursiveResize=0;expand=0;fontSize=24;verticalAlign=middle;align=left;" vertex="1" parent="RJMTiFoajsU4DwhKSX9r-421">
          <mxGeometry y="332" width="1520" height="53" as="geometry" />
        </mxCell>
        <mxCell id="RJMTiFoajsU4DwhKSX9r-454" style="swimlane;swimlaneHead=0;swimlaneBody=0;fontStyle=0;connectable=0;strokeColor=inherit;fillColor=none;startSize=0;collapsible=0;recursiveResize=0;expand=0;fontSize=24;verticalAlign=middle;align=left;" vertex="1" parent="RJMTiFoajsU4DwhKSX9r-453">
          <mxGeometry width="280" height="53" as="geometry">
            <mxRectangle width="280" height="53" as="alternateBounds" />
          </mxGeometry>
        </mxCell>
        <mxCell id="RJMTiFoajsU4DwhKSX9r-455" style="swimlane;swimlaneHead=0;swimlaneBody=0;fontStyle=0;connectable=0;strokeColor=inherit;fillColor=none;startSize=0;collapsible=0;recursiveResize=0;expand=0;fontSize=24;verticalAlign=middle;align=left;" vertex="1" parent="RJMTiFoajsU4DwhKSX9r-453">
          <mxGeometry x="280" width="280" height="53" as="geometry">
            <mxRectangle width="280" height="53" as="alternateBounds" />
          </mxGeometry>
        </mxCell>
        <mxCell id="RJMTiFoajsU4DwhKSX9r-456" value="&lt;span style=&quot;font-size: 24px; line-height: 107%; font-weight: normal;&quot;&gt;NotificationDate&lt;/span&gt;" style="text;html=1;align=left;verticalAlign=middle;resizable=0;points=[];autosize=1;strokeColor=none;fillColor=none;fontSize=24;fontStyle=1" vertex="1" parent="RJMTiFoajsU4DwhKSX9r-455">
          <mxGeometry x="24" y="6.5" width="190" height="40" as="geometry" />
        </mxCell>
        <mxCell id="RJMTiFoajsU4DwhKSX9r-457" style="swimlane;swimlaneHead=0;swimlaneBody=0;fontStyle=0;connectable=0;strokeColor=inherit;fillColor=none;startSize=0;collapsible=0;recursiveResize=0;expand=0;fontSize=24;verticalAlign=middle;align=left;" vertex="1" parent="RJMTiFoajsU4DwhKSX9r-453">
          <mxGeometry x="560" width="960" height="53" as="geometry">
            <mxRectangle width="960" height="53" as="alternateBounds" />
          </mxGeometry>
        </mxCell>
        <mxCell id="RJMTiFoajsU4DwhKSX9r-458" value="Дата и время отправки уведомления." style="text;html=1;align=left;verticalAlign=middle;resizable=0;points=[];autosize=1;strokeColor=none;fillColor=none;fontSize=24;" vertex="1" parent="RJMTiFoajsU4DwhKSX9r-457">
          <mxGeometry x="11" y="6.5" width="440" height="40" as="geometry" />
        </mxCell>
      </root>
    </mxGraphModel>
  </diagram>
</mxfile>
